<svg id="Layer_1" data-name="Layer 1" xmlns="http://www.w3.org/2000/svg" viewBox="0 0 148.54 137.38"><defs><style>.cls-1{fill:#777;}.cls-2{fill:#fff;}.cls-3,.cls-4{fill:#9e1f63;}.cls-4{stroke:#9e1f63;stroke-miterlimit:10;}</style></defs><title>Artboard 1</title><path class="cls-1" d="M38.92,31.21c-1.09.15-1.86.26-2.63.36s-1.38.12-2.07.24c-1.1.19-2.18.42-3.27.63S29,32.79,28,33c-1.31.27-2.62.59-3.94.83-1.69.3-3.39.52-5.08.8a6.81,6.81,0,0,0-1.7.62c-.33.16-.56.55-.9.67a4.66,4.66,0,0,1-1.24.1c0-.21.1-.52,0-.62-.26-.28-.76-.4-.89-.71A16,16,0,0,1,13.89,33a13.08,13.08,0,0,0-1.24-3.33c-.72-1.09-1.91-1.84-2.76-2.87a13.66,13.66,0,0,1-1.26-2.36c-.74-1.38-.35-2.75-.05-4.14.05-.25-.06-.52,0-.77s.41-.7.58-1.07q.55-1.22,1-2.45c.56-1.37,1.1-2.74,1.68-4.11.38-.89.76-1.79,1.21-2.65A17.27,17.27,0,0,1,15.3,5.55c.42-.47,1.68-.38,2.5-.24a9.41,9.41,0,0,1,2.1,1,1.18,1.18,0,0,0,.4-.48A5.63,5.63,0,0,1,23,2.65c1.63-.84,3-.35,4.39.46a14.1,14.1,0,0,1,1.79,1.55c.72.62,1.48,1.18,2.17,1.83s1,1.14,1.55,1.67c.86.84,1.76,1.63,2.64,2.45s1.6,1.5,2.39,2.26a5.54,5.54,0,0,0,1.1,1c1,.52.88,1.47,1,2.29a25.26,25.26,0,0,1,.4,4.45,7.81,7.81,0,0,1-.79,2.56,18.58,18.58,0,0,1-.88,1.91c-.12.24-.48.43-.52.66a3.66,3.66,0,0,0,.12,1.3c.31,1.13.71,2.23,1,3.38C39.43,30.71,39,31.08,38.92,31.21Zm-14-10.35H25c-.1-.49-.21-1-.28-1.45-.24-1.55-.43-3.1-.72-4.66s-.7-3.1-1-4.61a.68.68,0,0,0-.09-.28.52.52,0,0,0-.23-.1c-.38.82-.77,1.63-1.1,2.47-.52,1.21-1,2.44-1.44,3.66-.17.42-.42.82-.56,1.25s-.26,1.16-.45,1.73c-.25.72-.59,1.41-.83,2.13-.09.27-.14.75,0,.89,1.14,1,2.3,2.07,3.52,3A10.83,10.83,0,0,0,24,26.11c.52.23,1.21.11,1.26.93,0,0,.14.11.2.09a.23.23,0,0,0,.12-.19c0-1.07-.05-2.13-.15-3.19s-.28-1.9-.45-2.87ZM19.08,9.19a4.82,4.82,0,0,0-.55-.34,3.57,3.57,0,0,0-.84-.31c-.52.94-1,1.91-1.47,2.87-.67,1.3-1.41,2.59-2,3.89a27,27,0,0,0-1.15,3.31c-.12.4.11,1-.1,1.27-.37.56-.44.82.33.72a3.2,3.2,0,0,0,1.66-.52c.39-.36.43-1.07.67-1.61s.66-1.31.93-2c.4-1,.73-2.07,1.09-3.15.23-.68.46-1.37.7-2.07S18.81,9.92,19.08,9.19Zm14.14,12.9a2.51,2.51,0,0,0,.17.31h.07c.27-.52.55-1,.79-1.52a10.48,10.48,0,0,0,1.11-2.59c.09-.57,1.19-1.2.06-1.9a20,20,0,0,1-2.07-1.71,2.39,2.39,0,0,0-.52-.25,1.67,1.67,0,0,0,0,.34,17.12,17.12,0,0,1,.39,2.2C33.26,18.75,33.23,20.52,33.23,22.08Z"/><path class="cls-1" d="M3.52,127.41c.22-2.19.4-4.38.67-6.56.38-3.1.8-6.21,1.24-9.27.25-1.75.55-3.5.88-5.24.66-3.46,1.31-6.92,2-10.35s1.47-7,2.31-10.5c.52-2.18,1.22-4.32,1.86-6.47.44-1.5.84-3,1.41-4.47.77-2,1.66-3.92,2.53-5.86a14.68,14.68,0,0,1,1.21-2.2c.63-.93,1.78-.84,3.07-.39a21.85,21.85,0,0,0,4.62.94,32.27,32.27,0,0,0,4.72.22c2.69-.07,5.38-.21,8.07-.47a4.45,4.45,0,0,0,2.1-1c.8-.63,1.44-.64,2,.21,1.24,1.77,2.59,3.47,3.67,5.33a55.35,55.35,0,0,1,2.8,5.87c.81,1.88,1.55,3.79,2.2,5.72S52.23,87,52.78,89c.89,3.31,1.75,6.63,2.54,10,.67,2.83,1.39,5.69,1.78,8.56a58.36,58.36,0,0,1,.18,6.67c0,2.11.14,4.21.14,6.31,0,.8-.22,1.59-.3,2.38a2.81,2.81,0,0,0,0,1.28,2.35,2.35,0,0,1-.82,2.79,41,41,0,0,1-4.3,4,26.9,26.9,0,0,1-5.14,2.79,16.5,16.5,0,0,1-3.41.65,36.81,36.81,0,0,1-4.71.87c-2.72.17-5.45.1-8.17.11a31.38,31.38,0,0,1-3.42-.12c-1.37-.13-2.72-.44-4.09-.55-1.08-.08-2.18.15-3.24,0-1.51-.18-3-.57-4.47-.85-2.09-.39-4.2-.73-6.29-1.15a5.36,5.36,0,0,1-1.22-.57,8.92,8.92,0,0,0-1.55-.77A4,4,0,0,1,3.52,127.41Zm47.59-26.9c-.08,0-.75-2.77-1.36-5.37s-1.16-5.07-1-4.45q-.36-1.42-.71-2.83T47.28,85a.57.57,0,0,0-.1-.19l-.13-.18-.18.13-.17.13c-.21.19-.41.39-.62.58a5,5,0,0,1-.65.52c-.32.21-.66.4-1,.59l-1,.56-2,1.14-2,1.16a2,2,0,0,0-.31.22A.48.48,0,0,0,39,90a5.64,5.64,0,0,0,0,.76c.27,10.16,3,20.3,3,30.42,0,1,0,2,0,3,0,.79.07,1.23.28,1.4s.57.09,1.21-.15c2.45-.52,6.46-2.59,9-2.59.19-.08.45-.16.67-.23s.4-.17.43-.29a4.22,4.22,0,0,0,.12-1v-1c0-.33,0-1.23-.08-1.92s-.07-1.29-.07-1.29c-.58-3.74-.63-6.06-.82-8.34a32.91,32.91,0,0,0-1.69-8.09ZM22.71,91.9c.12-1-.41-1.24-1.34-1.26a6.26,6.26,0,0,1-2.53-.52c-1.48-.72-2.86-1.64-4.29-2.45-.12-.07-.52.06-.52.16-.66,2.42-1.4,4.82-1.9,7.27-.67,3.32-1.17,6.68-1.71,10-.37,2.3-.69,4.61-1,6.92a43.78,43.78,0,0,0-.26,11.54,4.47,4.47,0,0,0,.44,2,5.25,5.25,0,0,0,3.28,2,15.84,15.84,0,0,0,2.78.24q3.39.15,6.79.23a.63.63,0,0,0,.44-.43c0-1.2-.09-2.4-.15-3.6-.17-3.26-.39-6.51-.47-9.77,0-2.07.16-4.2.2-6.29s0-4.14.07-6.21c0-1.62.17-3.24.2-4.87S22.71,93.54,22.71,91.9Zm7.58-17.74,1-.25a43.55,43.55,0,0,0,5.27-1.15,28.23,28.23,0,0,0,4.09-2.17c.11-.06.23-.37.18-.44-.27-.35-.71-1-.87-.93a20.85,20.85,0,0,1-5.52,1.71c-2.12.17-4.21.66-6.32,1-2.9.4-5.56-.61-8.23-1.52-.21-.07-.68.21-.81.44s-.23,1-.11,1a15,15,0,0,0,4,1.7C25.47,74,28,74,30.29,74.15Z"/><path class="cls-2" d="M30.29,74.15C28,74,25.48,74,23,73.56a15.17,15.17,0,0,1-4-1.7c-.12-.06-.05-.75.11-1s.6-.52.81-.44c2.67.91,5.33,1.92,8.23,1.52,2.11-.29,4.2-.79,6.32-1A20.12,20.12,0,0,0,40,69.23c.17-.06.61.58.87.93.05.07-.07.38-.18.44a26.34,26.34,0,0,1-4.09,2.17,44.33,44.33,0,0,1-5.27,1.15A9.67,9.67,0,0,0,30.29,74.15Z"/><path class="cls-2" d="M51.8,107.61a3.37,3.37,0,0,1,.1.37c0,.19,0,.39.07.58l-.17-.39h0v-.56Z"/><path class="cls-2" d="M51.24,101.26l0,.09c0-.08-.06-.15-.08-.23s0-.05,0-.08Z"/><path class="cls-2" d="M52.15,109.92l-.06-.33a.43.43,0,0,1,.06.34Z"/><path class="cls-2" d="M51.33,101.88l0,.09a.43.43,0,0,1,0-.11.1.1,0,0,1,0-.08Z"/><path class="cls-2" d="M51.42,103.86v.2a.4.4,0,0,1,0,.09,1.13,1.13,0,0,1,0-.13A1,1,0,0,1,51.42,103.86Z"/><path class="cls-2" d="M51.46,104.59l0-.12h0l-.08.09Z"/><path class="cls-2" d="M51.29,102.53l0,0v0l0,0Z"/><path class="cls-2" d="M51.1,100.53l0,.12h0v-.13Z"/><path class="cls-2" d="M51.52,105.37l0-.11,0,.11Z"/><path class="cls-2" d="M52,109.13l0,.05h0v-.05Z"/><polygon points="52.65 120.93 52.63 120.92 52.65 120.91 52.65 120.93"/><path d="M50.62,123.51h-.08l.05,0Z"/><path d="M13.87,29.12c.62.63,2.48,2.4,1.92,1.76,1,1.11,0,2.43-.07,2.64a1.35,1.35,0,0,1-.08.32l-.12.11a13.43,13.43,0,0,0-1.82,5.3c.05,1.66,2.64,1.67,2.59,0A4,4,0,0,1,16.76,38c.18-.32.35-.65.52-1,1.24-1.12,3.4-1.55,4.86-2,2.18-.65,4.37-1.25,6.56-1.82.47-.12,3.17-.15,4.19-.29a14.36,14.36,0,0,1,4.57-.14A6,6,0,0,1,41,35.23c1,1.21,2.8-.34,2-1.55l-4-6.41a1.37,1.37,0,0,0-.24-.28c1.66-2.93,3.8-8.73,2.7-10.77C37.88,9.29,27.29,1.63,25.14,1.88A2.41,2.41,0,0,0,23.2,3.2C22.79,3.27,22,6,21.61,6.82,20.43,5.72,18.54,4.23,17,4.65s-2.46,3.06-3,4.44c-1.79,4.34-4.59,13.29-3.67,15.72C10.93,26.55,12.53,27.77,13.87,29.12Zm21.44-1.55c-.28.37-.48.95-.66.94l-1.51-.08a10.22,10.22,0,0,1,1-2,56.85,56.85,0,0,0,4.47-6.79,16.15,16.15,0,0,1-3.26,7.92Zm-1.64-5a41.51,41.51,0,0,0-1.15-8.19c-.26-1.1-.55-2.33-.94-3.57,1.86,1.9,3.62,3.92,5.58,5.76a33.71,33.71,0,0,1-3.5,6ZM22.88,28.53a21.63,21.63,0,0,1-1.55-1.7c.72.47,1.46.91,2.21,1.3A1.3,1.3,0,0,0,22.88,28.53ZM24.23,7.2a1.29,1.29,0,0,0,.07.44,115.71,115.71,0,0,1,3.81,13.48c.87,4.52-.72,4.55-.82,5.74a15.45,15.45,0,0,1-4.14-1.94c-1.33-.83-4.21-1.72-4.63-4.43.13-2,2.76-7.15,3.42-8.47a44.17,44.17,0,0,0,2.3-4.83Zm-9,6c.52-1.51,1.89-5.74,2.42-6,.74-.31,2.76,2.07,2.89,2.11a40.61,40.61,0,0,0-1.91,4C17.51,16,15.12,19.7,15.82,23c.23,1.09,2.81,5.1,4.89,7.24a8.54,8.54,0,0,1-1.38.31c-1.22-.61-3.55-3.2-4.28-4A25.42,25.42,0,0,1,12.82,24C12.31,20.57,14.47,15.28,15.18,13.17Z"/><path d="M27.23,122.8a1.19,1.19,0,0,0,.06.21,1.36,1.36,0,0,0-1.49.59m8.92-20.53Zm7.69,27c1.13-.35,2.4-1.17,2-5.17-.52-5.25-.6-10.53-2.2-15.61-.52-1.61-1.71-1.89-2.52-.46-1.4,2.5-2.74,7.51-3.83,10-1.18,2.67-1.73,5.81-3.41,8.2a1,1,0,0,0-.07,1.22q-1.49,0-3,.05l.18-2.07a1.55,1.55,0,0,0,.26-.52c.88-2.7,1.76-5.39,2.5-8.13a12,12,0,0,0,.72-3.38c.33-1.07.67-2.13,1.08-3.17,1-2.44,2.59-3.91,2.75-7.24l1.9-5.26a1.18,1.18,0,0,0-.05-1.55,28.36,28.36,0,0,0,1-6.86,1.13,1.13,0,0,0,1.11-1.15s0-.06,0-.09c-.09-1.68.66-3.37,1-5s.72-3.27,1-4.93a1.38,1.38,0,0,0,0-.47v-.21a1.1,1.1,0,0,0-.63-1.11c1-1.72,2.07-3.26,1.82-5.41-.12-1.09-1.84-2-2.41-.65a2.45,2.45,0,0,1-.76.93,1.09,1.09,0,0,0-.81.52l0,0c-2.19,1.07-5.85,1.23-7.45,1.3A1.3,1.3,0,0,0,32,74c-1.46-.07-2.92,0-4.4-.14a18.89,18.89,0,0,1-8.24-2.64,1.24,1.24,0,0,0-.72-.18q.06-.57.09-1.14c.07-.21.13-.43.19-.64a1.27,1.27,0,0,0,.73.62,24.49,24.49,0,0,0,15.6.52c2.54.37,5-1.29,6.72-3.42l.14.05a1.3,1.3,0,1,0,2.38-.58l-.74-2.67A1.3,1.3,0,0,0,41.31,63a1.55,1.55,0,0,0-1.24,1,2.89,2.89,0,0,1-1.34,1.55,1,1,0,0,0-.44.48,16.69,16.69,0,0,1-3.56,1.77,1.14,1.14,0,0,0-1-.41,72.54,72.54,0,0,1-12.07-.62h0a1.46,1.46,0,0,0-.42-.42l-1.79-1.78a1.31,1.31,0,0,0-2.43.65c0,.43-.08.85-.13,1.27a1,1,0,0,0-.77,1.18,15.3,15.3,0,0,1,0,1.77,16.51,16.51,0,0,1-1.52,3.19,1.42,1.42,0,0,0-.11.22,1.26,1.26,0,0,0-.62.52c-1.49,2.4-1.32,5-1.84,7.71-.47,2.43-1.38,4.66-1.6,7.11C9.27,92.15,7.78,96,7.22,100.06c-3.7,26.8-4.46,30,1.68,33.44A76.53,76.53,0,0,0,30.47,136s12.53,0,21-3.62c2.13-.92,4.82-1.64,6.3-3.54s1.51-5,1.55-7.38c.09-6.87-1.66-20.89-4-27.46-1.19-3.41-4.58-8-4.3-10.74-.23-2.17-2.89-1.85-2.59,0,.33,3.43,3.35,8.49,4.62,12.11s2.91,14,3.41,20.17a48.79,48.79,0,0,1,.1,8.73c-.39,3.88-3.49,4.59-6.72,5.93-10.29,4.29-23,3.65-29.2,3-4.95-.52-10-.69-12.35-3.82s-.52-15,.3-18.92c1.61-7.86,3.68-15.65,5.65-23.44a24.17,24.17,0,0,0,7.65,2.85l.32.06c.62.29,1.24.56,1.86.78-1.3,6.58-.31,10.35-.73,17.45-.86,12.56-2.15,19.3.74,21,5.77,3.28,17.17,1.24,18.3.89Z"/><path class="cls-3" d="M58,81l-.85.06a1,1,0,0,0-.46.14.58.58,0,0,0-.22.34,5.33,5.33,0,0,0-.12.63l-.44,0,.06-.52,0-.52a4.17,4.17,0,0,1,0-.58l.08-.07.77.1h2.89l.79-.1.08.07a4.51,4.51,0,0,0,0,.58q0,.28,0,.52t.06.52l-.44,0q-.07-.42-.13-.65a.62.62,0,0,0-.21-.35.89.89,0,0,0-.44-.15L58.74,81q0,.28-.06.81t0,1.17q0,.64,0,1.31a12.3,12.3,0,0,0,0,1.24.77.77,0,0,0,.12.49.52.52,0,0,0,.41.14h.51l0,0-.08.43H56.95l.07-.4a4.06,4.06,0,0,0,.52-.07.48.48,0,0,0,.28-.16.63.63,0,0,0,.12-.33,5.77,5.77,0,0,0,0-.58Z"/><path class="cls-3" d="M61.2,86.2a.6.6,0,0,0,.38-.14.52.52,0,0,0,.11-.37v-5q0-.48-.35-.49h-.18l0,0,0-.3.49-.07.44-.09.44-.1.06.12a1,1,0,0,0-.07.32q0,.26-.06.69t-.05,1q0,.56,0,1.2l.24-.17.39-.24.42-.22a.86.86,0,0,1,.32-.1,1.32,1.32,0,0,1,.95.31,1.16,1.16,0,0,1,.33.89v.4l-.05.62-.05.66a2.56,2.56,0,0,0,0,.52q0,.52.33.52h.33v0l-.07.4H64.36l-.31,0-.34.06,0-.38a.77.77,0,0,0,.4-.22.58.58,0,0,0,.12-.39l.06-1.84a1.13,1.13,0,0,0-.2-.72.69.69,0,0,0-.57-.25,1.12,1.12,0,0,0-.37.07l-.35.15a2.07,2.07,0,0,0-.28.17l-.18.12v2.26a.8.8,0,0,0,.07.4.28.28,0,0,0,.26.12H63v0l-.08.4H61.17Z"/><path class="cls-3" d="M66.85,84.16v.13a2.44,2.44,0,0,0,.1.71,1.59,1.59,0,0,0,.28.54,1.29,1.29,0,0,0,.44.35,1.26,1.26,0,0,0,.56.12,2.17,2.17,0,0,0,.42,0l.37-.1.35-.15h.06l.1.27a5.62,5.62,0,0,1-.52.32,3.72,3.72,0,0,1-.46.22,1.26,1.26,0,0,1-.46.1,2.1,2.1,0,0,1-.8-.15,1.76,1.76,0,0,1-.62-.42,1.88,1.88,0,0,1-.4-.65,2.41,2.41,0,0,1-.14-.84,2.49,2.49,0,0,1,.17-.91,2.59,2.59,0,0,1,.44-.76,2.13,2.13,0,0,1,.65-.52,1.71,1.71,0,0,1,.79-.19,1.21,1.21,0,0,1,1.39,1.35v.26a.92.92,0,0,1,0,.2l-.12.11Zm1.72-.43a.33.33,0,0,0,.19-.07.27.27,0,0,0,0-.19.76.76,0,0,0-.2-.57.79.79,0,0,0-.57-.2,1,1,0,0,0-.75.29,1.37,1.37,0,0,0-.4.81Z"/><path class="cls-3" d="M73.93,86.68a3.62,3.62,0,0,1-.6,0,2.9,2.9,0,0,1-.46-.11,1.85,1.85,0,0,1-.4-.16l0-.09.06-.48a5.08,5.08,0,0,0,0-.52v-.64l.42,0a5.83,5.83,0,0,0,0,.82,1,1,0,0,0,.18.52.68.68,0,0,0,.37.24,2.35,2.35,0,0,0,.62.07,1.49,1.49,0,0,0,.94-.27.89.89,0,0,0,.35-.75.72.72,0,0,0-.12-.4,1.46,1.46,0,0,0-.32-.34,3.26,3.26,0,0,0-.45-.29L74,83.89l-.55-.31a3.2,3.2,0,0,1-.49-.35,1.55,1.55,0,0,1-.35-.43,1.11,1.11,0,0,1-.13-.54,1.46,1.46,0,0,1,.16-.68,1.7,1.7,0,0,1,.45-.55,2.23,2.23,0,0,1,.68-.37,2.59,2.59,0,0,1,.85-.13,4.14,4.14,0,0,1,.57,0l.45.08a2.89,2.89,0,0,1,.4.11l0,.06q0,.21-.08.47t-.07.52q0,.28-.05.61l-.36,0-.06,0a1.1,1.1,0,0,1,0-.13v-.36a.82.82,0,0,0-.24-.67,1.45,1.45,0,0,0-.86-.19,1.36,1.36,0,0,0-.84.25.78.78,0,0,0-.33.64.71.71,0,0,0,.11.39,1.39,1.39,0,0,0,.28.32,2.51,2.51,0,0,0,.4.28l.48.26.62.32a3.41,3.41,0,0,1,.55.36,1.8,1.8,0,0,1,.4.44,1,1,0,0,1,.16.56,1.59,1.59,0,0,1-.17.73,1.7,1.7,0,0,1-.48.57,2.29,2.29,0,0,1-.73.38A3,3,0,0,1,73.93,86.68Z"/><path class="cls-3" d="M79,86.68a1.74,1.74,0,0,1-.73-.16,1.7,1.7,0,0,1-.57-.42,1.91,1.91,0,0,1-.37-.65,2.59,2.59,0,0,1-.13-.84,2.53,2.53,0,0,1,.17-.93,2.44,2.44,0,0,1,.46-.75,2.07,2.07,0,0,1,.68-.52,2,2,0,0,1,.85-.18,1.69,1.69,0,0,1,1.3.58,2,2,0,0,1,.37.65,2.5,2.5,0,0,1,.13.84,2.53,2.53,0,0,1-.17.93,2.45,2.45,0,0,1-.46.75,2.07,2.07,0,0,1-.68.52A2,2,0,0,1,79,86.68Zm.26-.46a1,1,0,0,0,.83-.42,1.94,1.94,0,0,0,.3-1.15,2.85,2.85,0,0,0-.1-.77,2,2,0,0,0-.27-.6,1.26,1.26,0,0,0-.42-.39,1.07,1.07,0,0,0-.52-.14,1,1,0,0,0-.83.43,2,2,0,0,0-.3,1.16,2.79,2.79,0,0,0,.1.77,2,2,0,0,0,.27.59,1.23,1.23,0,0,0,.41.39A1.09,1.09,0,0,0,79.23,86.22Z"/><path class="cls-3" d="M84.92,85.77l.1.29a5.24,5.24,0,0,1-.47.32,2.94,2.94,0,0,1-.42.21,1,1,0,0,1-.39.09,2.14,2.14,0,0,1-.81-.14,1.67,1.67,0,0,1-.61-.41,1.89,1.89,0,0,1-.39-.65,2.44,2.44,0,0,1-.14-.85,2.63,2.63,0,0,1,.17-.94,2.36,2.36,0,0,1,.45-.76,2.07,2.07,0,0,1,.68-.52,2,2,0,0,1,.85-.18l.42,0,.35.07.33.08,0,.07a3.81,3.81,0,0,0-.08.37,3.91,3.91,0,0,1-.07.41,4.8,4.8,0,0,0,0,.52l-.38,0v-.29a.72.72,0,0,0-.67-.77h-.1a1,1,0,0,0-.88.4,1.89,1.89,0,0,0-.3,1.15,2.14,2.14,0,0,0,.34,1.28,1.09,1.09,0,0,0,.93.47,1.55,1.55,0,0,0,.38,0l.34-.1.34-.16Z"/><path class="cls-3" d="M85.86,86.29a.77.77,0,0,0,.4-.22.58.58,0,0,0,.12-.39V83.32q0-.52-.35-.52H85.8l0-.35.47-.08.43-.09.44-.1,0,.11a1.69,1.69,0,0,0-.08.42q0,.32-.07.78t0,1V85.6q0,.55.33.52h.33v0l-.07.4H86.46l-.31,0-.34.06ZM86.65,81a.44.44,0,0,1-.33-.13.48.48,0,0,1-.12-.35.52.52,0,0,1,.48-.55h.06a.44.44,0,0,1,.33.13.47.47,0,0,1,.13.35.52.52,0,0,1-.48.55Z"/><path class="cls-3" d="M89.09,84.16v.13a2.44,2.44,0,0,0,.1.71,1.59,1.59,0,0,0,.28.54,1.29,1.29,0,0,0,.44.35,1.26,1.26,0,0,0,.56.12,2.16,2.16,0,0,0,.42,0l.37-.1.35-.15h.06l.1.27a5.61,5.61,0,0,1-.52.32,3.7,3.7,0,0,1-.46.22,1.25,1.25,0,0,1-.46.1,2.07,2.07,0,0,1-.8-.15,1.76,1.76,0,0,1-.62-.42,1.88,1.88,0,0,1-.39-.65,2.41,2.41,0,0,1-.14-.84,2.5,2.5,0,0,1,.17-.91,2.59,2.59,0,0,1,.44-.76,2.13,2.13,0,0,1,.65-.52,1.71,1.71,0,0,1,.79-.19,1.21,1.21,0,0,1,1.39,1.35v.26a.51.51,0,0,1,0,.2l-.12.11Zm1.72-.43a.33.33,0,0,0,.19-.07.27.27,0,0,0,0-.19.76.76,0,0,0-.2-.57.79.79,0,0,0-.57-.2,1,1,0,0,0-.75.29,1.37,1.37,0,0,0-.4.81Z"/><path class="cls-3" d="M93,83.26a.45.45,0,0,0-.11-.35.72.72,0,0,0-.42-.11l0-.06,0-.28a3.56,3.56,0,0,0,.43-.26l.37-.27.35-.32.19.07a1.14,1.14,0,0,0,0,.18,1.44,1.44,0,0,0,0,.22v.3l1.37,0,0,0-.08.52-1.35,0q0,.44,0,1t0,1.3a1,1,0,0,0,.17.67.7.7,0,0,0,.56.2h.22l.21-.06.21-.08.09.24-.39.28-.31.19a.52.52,0,0,1-.24.09,1.25,1.25,0,0,1-.89-.26,1.19,1.19,0,0,1-.26-.87Z"/><path class="cls-3" d="M97.42,85.72l.35-.84q.19-.46.35-.87l.28-.74a1.64,1.64,0,0,0,.11-.38q0-.24-.35-.24h-.43v0l.06-.31h1.73l-.07.35a.52.52,0,0,0-.32.15,1.22,1.22,0,0,0-.21.38L97.74,86q-.36.83-.62,1.37a5.79,5.79,0,0,1-.48.85,1.38,1.38,0,0,1-.46.43,1.09,1.09,0,0,1-.52.11.14.14,0,0,1-.1-.07l-.13-.16-.12-.18a.31.31,0,0,1-.05-.13l0-.07a1.5,1.5,0,0,0,1-.43,3.26,3.26,0,0,0,.8-1.21l-.26-.8-.32-.93q-.17-.48-.34-.92l-.3-.78a.85.85,0,0,0-.26-.34.68.68,0,0,0-.38-.11v0l.06-.31h1.53l.35,0v0l-.06.29a1.59,1.59,0,0,0-.44.07.18.18,0,0,0-.11.18,1,1,0,0,0,0,.22l.09.36.13.46.15.52q.18.58.42,1.3Z"/><path class="cls-3" d="M101.7,82.74l.07-.32.56-.1v0a3.62,3.62,0,0,1,.16-1.1,2.44,2.44,0,0,1,.43-.83,1.88,1.88,0,0,1,.67-.52,2.07,2.07,0,0,1,.88-.18,3,3,0,0,1,.43,0l.33.07.3.08v.08l-.09.18-.1.19a2.43,2.43,0,0,0-.1.24l-.1,0a2,2,0,0,0-.31-.17l-.35-.12a1.55,1.55,0,0,0-.42-.06q-1,0-1.07,1.72v.46h1.29l0,0-.09.52H103l0,2.8q0,.52.48.52H104v0l-.07.4h-2.2l0-.36a.51.51,0,0,0,.52-.55V83.27a.36.36,0,0,0-.13-.29,1.1,1.1,0,0,0-.46-.09Z"/><path class="cls-3" d="M106.53,86.68a1.74,1.74,0,0,1-.73-.16,1.7,1.7,0,0,1-.57-.42,1.91,1.91,0,0,1-.37-.65,2.59,2.59,0,0,1-.13-.84,2.53,2.53,0,0,1,.17-.93,2.44,2.44,0,0,1,.46-.75,2.07,2.07,0,0,1,.68-.52,2,2,0,0,1,.85-.18,1.69,1.69,0,0,1,1.3.58,2,2,0,0,1,.37.65,2.5,2.5,0,0,1,.13.84,2.53,2.53,0,0,1-.17.93,2.45,2.45,0,0,1-.46.75,2.07,2.07,0,0,1-.68.52A2,2,0,0,1,106.53,86.68Zm.26-.46a1,1,0,0,0,.83-.42,1.94,1.94,0,0,0,.3-1.15,2.85,2.85,0,0,0-.1-.77,2,2,0,0,0-.27-.6,1.26,1.26,0,0,0-.42-.39,1.07,1.07,0,0,0-.52-.14,1,1,0,0,0-.83.43,2,2,0,0,0-.3,1.16,2.79,2.79,0,0,0,.1.77,2,2,0,0,0,.27.59,1.23,1.23,0,0,0,.41.39A1.09,1.09,0,0,0,106.79,86.22Z"/><path class="cls-3" d="M109.94,86.05a1.28,1.28,0,0,0,.09-.59V83.39A.84.84,0,0,0,110,83a.3.3,0,0,0-.27-.13h-.2l0-.07,0-.29.43-.08.4-.09.42-.1.07.06q0,.15,0,.32a1.13,1.13,0,0,1,0,.31,2.42,2.42,0,0,0,0,.33l0,0a2.56,2.56,0,0,1,.31-.4,2.68,2.68,0,0,1,.35-.31,1.89,1.89,0,0,1,.35-.21.77.77,0,0,1,.31-.07h.29l0,0-.07.46q0,.2-.05.43t0,.44l-.36,0a1.6,1.6,0,0,0-.05-.52.2.2,0,0,0-.2-.12.76.76,0,0,0-.44.17,1.73,1.73,0,0,0-.43.47q0,.49,0,.87v1a.73.73,0,0,0,.09.43.44.44,0,0,0,.36.11h.41v0l-.08.41h-1.92l0-.37A.46.46,0,0,0,109.94,86.05Z"/><path class="cls-3" d="M60,94.43a.45.45,0,0,0-.11-.35.72.72,0,0,0-.42-.11l0-.06,0-.28a3.54,3.54,0,0,0,.43-.26l.37-.27.35-.32.19.07a1.15,1.15,0,0,0,0,.18,1.41,1.41,0,0,0,0,.22v.3l1.37,0,0,0-.08.52L60.8,94q0,.44,0,1t0,1.3a1,1,0,0,0,.17.67.7.7,0,0,0,.56.2h.22l.21-.06.21-.08.09.24-.39.28-.31.19a.52.52,0,0,1-.24.09,1.26,1.26,0,0,1-.89-.26,1.19,1.19,0,0,1-.26-.87Z"/><path class="cls-3" d="M62.68,97.37a.6.6,0,0,0,.38-.14.52.52,0,0,0,.11-.37v-5q0-.48-.35-.49h-.2l0,0,0-.3.49-.07.44-.09.44-.1.06.12a1,1,0,0,0-.07.32q0,.26-.06.69t-.05,1q0,.56,0,1.2l.24-.17.39-.24.42-.22a.86.86,0,0,1,.34-.1,1.32,1.32,0,0,1,.95.31,1.16,1.16,0,0,1,.33.89V95l-.05.62-.05.66a2.56,2.56,0,0,0,0,.52q0,.52.33.52h.33v0l-.07.4H65.84l-.31,0-.34.06,0-.38a.77.77,0,0,0,.4-.22.58.58,0,0,0,.12-.39L65.81,95a1.13,1.13,0,0,0-.2-.72A.69.69,0,0,0,65,94a1.12,1.12,0,0,0-.37.07l-.35.15a2.07,2.07,0,0,0-.28.17l-.18.12q0,.52,0,1.11t0,1.15a.8.8,0,0,0,.07.4.28.28,0,0,0,.26.12h.33v0l-.08.4H62.65Z"/><path class="cls-3" d="M68.36,95.34v.15a2.44,2.44,0,0,0,.1.71,1.59,1.59,0,0,0,.28.54,1.29,1.29,0,0,0,.44.35,1.26,1.26,0,0,0,.56.12,2.17,2.17,0,0,0,.42,0l.37-.1.35-.15h.06l.1.27a5.62,5.62,0,0,1-.52.32,3.72,3.72,0,0,1-.46.22,1.26,1.26,0,0,1-.46.1,2.1,2.1,0,0,1-.8-.15,1.76,1.76,0,0,1-.62-.42,1.88,1.88,0,0,1-.4-.65,2.41,2.41,0,0,1-.14-.84,2.49,2.49,0,0,1,.17-.91,2.59,2.59,0,0,1,.44-.76,2.13,2.13,0,0,1,.65-.52,1.71,1.71,0,0,1,.79-.19,1.21,1.21,0,0,1,1.39,1.35V95a.92.92,0,0,1,0,.2l-.12.11Zm1.72-.43a.33.33,0,0,0,.19-.07.27.27,0,0,0,0-.19.76.76,0,0,0-.2-.57.79.79,0,0,0-.57-.2,1,1,0,0,0-.75.29,1.37,1.37,0,0,0-.4.81Z"/><path class="cls-3" d="M75.42,97.85a3.62,3.62,0,0,1-.6,0,2.9,2.9,0,0,1-.46-.11,1.85,1.85,0,0,1-.4-.16l0-.09L74,97a5.08,5.08,0,0,0,0-.52v-.64l.42,0a5.83,5.83,0,0,0,0,.82,1,1,0,0,0,.18.52.68.68,0,0,0,.37.24,2.35,2.35,0,0,0,.62.07,1.49,1.49,0,0,0,.94-.27.89.89,0,0,0,.35-.75.72.72,0,0,0-.12-.4,1.47,1.47,0,0,0-.32-.34,3.26,3.26,0,0,0-.45-.29l-.52-.28L75,94.76a3.2,3.2,0,0,1-.49-.35,1.55,1.55,0,0,1-.35-.43,1.11,1.11,0,0,1-.13-.54,1.46,1.46,0,0,1,.16-.68,1.7,1.7,0,0,1,.45-.55,2.23,2.23,0,0,1,.68-.37,2.59,2.59,0,0,1,.85-.13,4.14,4.14,0,0,1,.57,0l.45.08a2.89,2.89,0,0,1,.4.11l0,.06q0,.21-.08.47t-.07.52q0,.28-.05.61l-.36,0-.06,0a1.1,1.1,0,0,1,0-.13V93.1a.82.82,0,0,0-.24-.67,1.45,1.45,0,0,0-.86-.19,1.36,1.36,0,0,0-.84.25.78.78,0,0,0-.33.64.71.71,0,0,0,.11.39,1.39,1.39,0,0,0,.28.32,2.53,2.53,0,0,0,.4.28l.48.26.62.32a3.41,3.41,0,0,1,.55.36,1.8,1.8,0,0,1,.4.44,1,1,0,0,1,.16.56,1.59,1.59,0,0,1-.17.73,1.7,1.7,0,0,1-.48.57,2.29,2.29,0,0,1-.73.38A3,3,0,0,1,75.42,97.85Z"/><path class="cls-3" d="M79.07,94.43a.45.45,0,0,0-.11-.35.72.72,0,0,0-.42-.11l0-.06,0-.28a3.52,3.52,0,0,0,.43-.26l.37-.27.35-.32.19.07a1.15,1.15,0,0,0,0,.18,1.38,1.38,0,0,0,0,.22v.3l1.37,0,0,0-.08.52L79.78,94q0,.44,0,1t0,1.3a1,1,0,0,0,.17.67.7.7,0,0,0,.56.2h.22l.21-.06.21-.08.09.24-.39.28-.31.19a.52.52,0,0,1-.24.09,1.26,1.26,0,0,1-.89-.26,1.19,1.19,0,0,1-.26-.87Z"/><path class="cls-3" d="M82.22,94.51q0-.52-.35-.52h-.23l0-.35.45-.08.43-.09.44-.1.06.11a2.19,2.19,0,0,0-.09.41q0,.29-.08.68c0,.26,0,.52-.06.82s0,.57,0,.85q0,.91.74.91A1.11,1.11,0,0,0,84.2,97l.52-.35V94.46a.58.58,0,0,0-.1-.39.48.48,0,0,0-.36-.11H84l0-.34.52-.08.47-.09.47-.1.06.11a1.66,1.66,0,0,0-.08.41q0,.31-.07.75t0,1v1.09q0,.43.38.43a.7.7,0,0,0,.21,0l.18-.08a.63.63,0,0,0,.17-.12l.13.15-.29.37-.26.26a.4.4,0,0,1-.25.11.74.74,0,0,1-.83-.76h0a8.52,8.52,0,0,1-.81.56,1.27,1.27,0,0,1-.49.21,1.37,1.37,0,0,1-.92-.27,1,1,0,0,1-.32-.81Z"/><path class="cls-3" d="M89.72,97.16a4,4,0,0,1-1.16.66,1.86,1.86,0,0,1-.73-.14,1.6,1.6,0,0,1-.57-.4,1.84,1.84,0,0,1-.37-.63,2.36,2.36,0,0,1-.13-.8,2.46,2.46,0,0,1,.18-.95,2.5,2.5,0,0,1,.52-.78,2.31,2.31,0,0,1,.74-.52,2.16,2.16,0,0,1,.9-.19h.29l.35,0V91.9q0-.52-.35-.52h-.23l0-.35a2.63,2.63,0,0,0,.49-.07l.44-.09.44-.1.06.12a2.53,2.53,0,0,0-.09.62q0,.52-.08,1.34t-.06,1.82v2q0,.43.38.43a.7.7,0,0,0,.21,0l.18-.08a.64.64,0,0,0,.17-.12l.13.15a2.65,2.65,0,0,1-.24.33,2,2,0,0,1-.26.25.88.88,0,0,1-.31.17.73.73,0,0,1-.82-.63v0Zm0-3-.24-.1L89.19,94a1.94,1.94,0,0,0-.38,0,1.22,1.22,0,0,0-1,.42,1.74,1.74,0,0,0-.36,1.16,2.27,2.27,0,0,0,.07.65,1.7,1.7,0,0,0,.26.52,1.32,1.32,0,0,0,.39.35,1,1,0,0,0,.49.13.88.88,0,0,0,.35-.07,2.29,2.29,0,0,0,.33-.17,2.88,2.88,0,0,0,.35-.25Z"/><path class="cls-3" d="M93.56,96.89l.35-.84q.19-.46.35-.87l.27-.72a1.64,1.64,0,0,0,.11-.38q0-.24-.35-.24h-.43v0l.06-.31h1.73l-.07.35a.52.52,0,0,0-.32.15,1.22,1.22,0,0,0-.21.38l-1.22,2.86q-.36.83-.62,1.37a5.79,5.79,0,0,1-.48.85,1.38,1.38,0,0,1-.46.43,1.09,1.09,0,0,1-.52.11.14.14,0,0,1-.1-.07l-.13-.16-.12-.18a.31.31,0,0,1-.05-.13l0-.07a1.5,1.5,0,0,0,1-.43,3.26,3.26,0,0,0,.78-1.21l-.26-.8L92.65,96q-.17-.48-.34-.92l-.3-.78a.85.85,0,0,0-.26-.34.68.68,0,0,0-.38-.11v0l.06-.31H93l.35,0v0l-.06.29a1.59,1.59,0,0,0-.44.07.18.18,0,0,0-.11.18,1,1,0,0,0,0,.22l.09.36.13.46.15.52q.18.58.42,1.3Z"/><path class="cls-3" d="M99.6,97.85a1.74,1.74,0,0,1-.73-.16,1.69,1.69,0,0,1-.57-.42,1.91,1.91,0,0,1-.37-.65,2.59,2.59,0,0,1-.13-.84,2.52,2.52,0,0,1,.17-.93,2.44,2.44,0,0,1,.44-.72,2.07,2.07,0,0,1,.68-.52,2,2,0,0,1,.85-.18,1.69,1.69,0,0,1,1.3.58,2,2,0,0,1,.37.65,2.5,2.5,0,0,1,.13.84,2.53,2.53,0,0,1-.17.93,2.43,2.43,0,0,1-.46.75,2.07,2.07,0,0,1-.68.52A2,2,0,0,1,99.6,97.85Zm.26-.46a1,1,0,0,0,.83-.42,1.94,1.94,0,0,0,.3-1.15,2.85,2.85,0,0,0-.1-.77,2,2,0,0,0-.27-.6,1.25,1.25,0,0,0-.42-.39,1.07,1.07,0,0,0-.52-.14,1,1,0,0,0-.83.43,2,2,0,0,0-.3,1.16,2.79,2.79,0,0,0,.1.77,2,2,0,0,0,.27.59,1.23,1.23,0,0,0,.41.39,1.09,1.09,0,0,0,.52.13Z"/><path class="cls-3" d="M102.47,93.91l.07-.31.56-.1v0a3.62,3.62,0,0,1,.16-1.1,2.44,2.44,0,0,1,.43-.83,1.88,1.88,0,0,1,.67-.52,2.07,2.07,0,0,1,.88-.18,3,3,0,0,1,.43,0l.33.07.3.08v.08l-.09.18-.1.19a2.43,2.43,0,0,0-.1.24l-.1,0a2,2,0,0,0-.27-.2l-.35-.12a1.55,1.55,0,0,0-.42-.06q-1,0-1.07,1.72v.46h1.29l0,0-.09.52H103.8l0,2.8q0,.52.48.52h.56v0l-.07.4h-2.2l0-.36a.51.51,0,0,0,.52-.55V94.41a.36.36,0,0,0-.13-.29,1.1,1.1,0,0,0-.46-.09Z"/><path class="cls-3" d="M108.65,97.75h-.36l-.35,0-.35.06.06-.43a1.58,1.58,0,0,0,.35-.1.67.67,0,0,0,.22-.15.49.49,0,0,0,.12-.22,1.46,1.46,0,0,0,0-.33V92.7a.83.83,0,0,0-.07-.4.31.31,0,0,0-.28-.1h-.32v0l.07-.41h2.14a2.19,2.19,0,0,1,1.37.36,1.25,1.25,0,0,1,.47,1,1.36,1.36,0,0,1-.28.84,1.91,1.91,0,0,1-.8.59,2.14,2.14,0,0,1,1.06.52,1.21,1.21,0,0,1,.38.89,1.43,1.43,0,0,1-.18.69,1.91,1.91,0,0,1-.48.57,2.38,2.38,0,0,1-.7.39,2.41,2.41,0,0,1-.83.14,3.94,3.94,0,0,1-.61,0A4.2,4.2,0,0,0,108.65,97.75Zm.42-2.77,0,1.74a.54.54,0,0,0,.24.52,1.64,1.64,0,0,0,.82.15,1.21,1.21,0,0,0,.88-.31,1.25,1.25,0,0,0,0-1.67A1.71,1.71,0,0,0,110,95Zm0-.52.46,0,.34,0h.22a1.17,1.17,0,0,0,.44-.22,1.39,1.39,0,0,0,.3-.36,1.18,1.18,0,0,0,.14-.62,1,1,0,0,0-.39-.89,2.16,2.16,0,0,0-1.24-.28c-.07,0-.11,0-.13,0a.4.4,0,0,0,0,.17q0,.46,0,1t0,1.14Z"/><path class="cls-3" d="M113,97.47a.77.77,0,0,0,.4-.22.58.58,0,0,0,.12-.39V94.5q0-.52-.35-.52H113l0-.35.47-.08.43-.09.44-.1,0,.11a1.72,1.72,0,0,0-.08.42q0,.32-.07.78t0,1v1.09c0,.35.11.52.33.52h.33v0l-.07.4h-1.14l-.31,0-.34.06Zm.79-5.33a.44.44,0,0,1-.33-.13.48.48,0,0,1-.12-.35.52.52,0,0,1,.48-.55h.06a.44.44,0,0,1,.33.13.47.47,0,0,1,.13.35.52.52,0,0,1-.48.55Z"/><path class="cls-3" d="M116.82,97.85a3.28,3.28,0,0,1-.83-.1,1.28,1.28,0,0,1-.3-.1l0-.07,0-.23a1.2,1.2,0,0,1,0-.35c0-.12,0-.25,0-.37a.93.93,0,0,0,0-.29l.33,0a1.42,1.42,0,0,0,.2.86.85.85,0,0,0,.7.25,1.07,1.07,0,0,0,.59-.16.46.46,0,0,0,.24-.39.52.52,0,0,0,0-.21.64.64,0,0,0-.17-.21,2.94,2.94,0,0,0-.34-.24l-.52-.3a2.59,2.59,0,0,1-.77-.54.9.9,0,0,1-.24-.61,1.1,1.1,0,0,1,.13-.52,1.32,1.32,0,0,1,.36-.42,1.77,1.77,0,0,1,.54-.28,2.2,2.2,0,0,1,.68-.1h.35l.3.05.28.07v0a2.32,2.32,0,0,1-.07.34c0,.12,0,.23-.06.36s0,.28,0,.44l-.35,0a.52.52,0,0,1,0-.1.81.81,0,0,1,0-.09.75.75,0,0,0,0-.08.61.61,0,0,0-.18-.49.89.89,0,0,0-.58-.16.93.93,0,0,0-.52.15.43.43,0,0,0-.22.36.6.6,0,0,0,.19.42,2.36,2.36,0,0,0,.63.42q.37.2.63.36a2.66,2.66,0,0,1,.4.31.89.89,0,0,1,.21.3.85.85,0,0,1,.06.33,1,1,0,0,1-.14.52,1.52,1.52,0,0,1-.37.43,1.8,1.8,0,0,1-.52.29A2,2,0,0,1,116.82,97.85Z"/><path class="cls-3" d="M119.3,97.37a.6.6,0,0,0,.38-.14.52.52,0,0,0,.11-.37v-5q0-.48-.35-.49h-.2l0,0,0-.3a2.75,2.75,0,0,0,.49-.07l.44-.09.44-.1.06.12a1,1,0,0,0-.07.32c0,.18,0,.4-.06.69s0,.62-.05,1,0,.77,0,1.2l.24-.17.39-.24.42-.22a.86.86,0,0,1,.34-.1,1.32,1.32,0,0,1,.95.31,1.16,1.16,0,0,1,.33.89V95a4.1,4.1,0,0,1-.05.62l-.05.66a2.56,2.56,0,0,0,0,.52c0,.35.11.52.33.52h.33v0l-.07.4h-1.14l-.31,0-.34.06,0-.38a.77.77,0,0,0,.34-.24.58.58,0,0,0,.12-.39l.06-1.84a1.12,1.12,0,0,0-.2-.72.69.69,0,0,0-.57-.25,1.12,1.12,0,0,0-.37.07l-.35.15a2.11,2.11,0,0,0-.28.17l-.18.12V96.8a.8.8,0,0,0,.07.4.28.28,0,0,0,.26.12h.33v0l-.08.4h-1.77Z"/><path class="cls-3" d="M126.08,97.85a1.74,1.74,0,0,1-.73-.16,1.69,1.69,0,0,1-.57-.42,1.91,1.91,0,0,1-.37-.65,2.59,2.59,0,0,1-.13-.84,2.52,2.52,0,0,1,.17-.93,2.44,2.44,0,0,1,.46-.75,2.07,2.07,0,0,1,.68-.52,2,2,0,0,1,.85-.18,1.69,1.69,0,0,1,1.3.58,2,2,0,0,1,.37.65,2.5,2.5,0,0,1,.13.84,2.53,2.53,0,0,1-.17.93,2.43,2.43,0,0,1-.46.75,2.07,2.07,0,0,1-.68.52A2,2,0,0,1,126.08,97.85Zm.26-.46a1,1,0,0,0,.83-.42,1.94,1.94,0,0,0,.3-1.15,2.85,2.85,0,0,0-.1-.77,2,2,0,0,0-.27-.6,1.25,1.25,0,0,0-.42-.39,1.07,1.07,0,0,0-.52-.14,1,1,0,0,0-.83.43,2,2,0,0,0-.3,1.16,2.79,2.79,0,0,0,.1.77,2,2,0,0,0,.27.59,1.23,1.23,0,0,0,.41.39,1.09,1.09,0,0,0,.52.13Z"/><path class="cls-3" d="M129,99.58l.24-.05a.28.28,0,0,0,.14-.11.48.48,0,0,0,.07-.2,2.21,2.21,0,0,0,0-.32V94.59a.72.72,0,0,0-.1-.44A.43.43,0,0,0,129,94h-.1l0,0,0-.31.5-.07.42-.09.41-.09.06.07,0,.16a.31.31,0,0,1,0,.16c0,.06,0,.12,0,.18l0,.07c.28-.19.52-.34.7-.44a1,1,0,0,1,.38-.16,1.81,1.81,0,0,1,.73.14,1.68,1.68,0,0,1,.57.4,1.77,1.77,0,0,1,.37.62,2.35,2.35,0,0,1,.13.8,2.41,2.41,0,0,1-.19.95,2.63,2.63,0,0,1-.52.78,2.27,2.27,0,0,1-.73.52,2.16,2.16,0,0,1-.9.19h-.68v1a1.37,1.37,0,0,0,.08.58.37.37,0,0,0,.35.16h.32v0l-.07.35h-1.27l-.31,0-.3,0Zm1.13-2.42a2.59,2.59,0,0,0,.44.12,2.51,2.51,0,0,0,.49.05,1.22,1.22,0,0,0,1-.42,1.74,1.74,0,0,0,.36-1.16,2.29,2.29,0,0,0-.09-.66,1.72,1.72,0,0,0-.26-.52,1.33,1.33,0,0,0-.39-.35,1,1,0,0,0-.49-.13,1.12,1.12,0,0,0-.46.12,2.3,2.3,0,0,0-.52.33q0,.29,0,.62v1.37c0,.23,0,.43,0,.63Z"/><path class="cls-3" d="M135.09,97.85a3.37,3.37,0,0,1-.46,0l-.35-.07a1.29,1.29,0,0,1-.3-.1l0-.07,0-.23a1.2,1.2,0,0,1,0-.35c0-.12,0-.25,0-.37a.93.93,0,0,0,0-.29l.33,0a1.42,1.42,0,0,0,.2.86.85.85,0,0,0,.7.25,1.07,1.07,0,0,0,.59-.16.46.46,0,0,0,.24-.39.52.52,0,0,0,0-.21.64.64,0,0,0-.17-.21,2.94,2.94,0,0,0-.34-.24l-.52-.3a2.62,2.62,0,0,1-.77-.54.9.9,0,0,1-.24-.61,1.1,1.1,0,0,1,.13-.52,1.32,1.32,0,0,1,.36-.42,1.77,1.77,0,0,1,.54-.28,2.2,2.2,0,0,1,.68-.1h.35l.3.05.28.07v0a2.32,2.32,0,0,1-.07.34c0,.12,0,.23-.06.36s0,.28,0,.44l-.35,0a.52.52,0,0,1,0-.1.81.81,0,0,1,0-.09.75.75,0,0,0,0-.08A.61.61,0,0,0,136,94a.89.89,0,0,0-.58-.16.93.93,0,0,0-.52.15.43.43,0,0,0-.22.36.6.6,0,0,0,.19.42,2.37,2.37,0,0,0,.63.42q.37.2.63.36a2.66,2.66,0,0,1,.4.31.89.89,0,0,1,.21.3.85.85,0,0,1,.06.33,1,1,0,0,1-.14.52,1.51,1.51,0,0,1-.37.43,1.8,1.8,0,0,1-.52.29A2,2,0,0,1,135.09,97.85Z"/><path class="cls-3" d="M143.65,96.22a1.77,1.77,0,0,0,.17-.8q0-1.1-.72-1.1h-.2l-.17,0-.17,0-.13-.4.13-.07.16-.06.21,0,1.92-.11.37,0h.31l0,0,.09.22-.12.29a.36.36,0,0,1-.07.09.27.27,0,0,1-.11.06l-.19,0h-1.25l0,.06a1,1,0,0,1,.29.4,1.3,1.3,0,0,1,.1.52,2.14,2.14,0,0,1-.37,1.17l1.3,1.1v.15l-.23.15-.2.1-.14,0a8.72,8.72,0,0,1-1.18-1,3,3,0,0,1-.88.62,2.34,2.34,0,0,1-1,.22,2.27,2.27,0,0,1-1.46-.43,1.42,1.42,0,0,1-.52-1.17,1.25,1.25,0,0,1,.19-.69,2,2,0,0,1,.42-.48,2.54,2.54,0,0,1,.62-.37v-.09a3.71,3.71,0,0,1-.56-.78,1.47,1.47,0,0,1-.19-.69,1.26,1.26,0,0,1,.14-.58,1.45,1.45,0,0,1,.39-.47,1.88,1.88,0,0,1,.59-.31,2.32,2.32,0,0,1,.73-.11,3,3,0,0,1,.46,0l.36.08.31.1v.14l-.44.69h-.09a2.69,2.69,0,0,0-.52-.4,1,1,0,0,0-.46-.1.88.88,0,0,0-.6.19.65.65,0,0,0-.22.52,1.43,1.43,0,0,0,.07.44,1.63,1.63,0,0,0,.22.43,3.39,3.39,0,0,0,.43.52l.68.62Zm-2.51-1.3a1.43,1.43,0,0,0-.58.48,1.14,1.14,0,0,0-.22.67,1,1,0,0,0,.42.87,1.81,1.81,0,0,0,1.13.33,2,2,0,0,0,1.34-.48Z"/><path class="cls-3" d="M63,105.61a.45.45,0,0,0-.11-.35.72.72,0,0,0-.42-.12l0-.06,0-.28a3.62,3.62,0,0,0,.43-.26l.37-.27.35-.32.19.07a1.13,1.13,0,0,0,0,.18,1.42,1.42,0,0,0,0,.22v.3l1.37,0,0,0-.08.52-1.38-.05q0,.44,0,1t0,1.3a1,1,0,0,0,.17.67.7.7,0,0,0,.56.2h.22l.21-.06.21-.08.09.24-.39.28-.31.19a.52.52,0,0,1-.24.09,1.26,1.26,0,0,1-.89-.25,1.19,1.19,0,0,1-.26-.87Z"/><path class="cls-3" d="M65.65,108.55a.6.6,0,0,0,.38-.14.52.52,0,0,0,.11-.37v-5q0-.49-.35-.49h-.2l0,0,0-.3.49-.07.44-.09L67,102l.06.12a1,1,0,0,0-.07.32q0,.26-.06.69t-.05,1q0,.56,0,1.2l.24-.16.39-.24.42-.22a.86.86,0,0,1,.34-.1,1.32,1.32,0,0,1,.95.31,1.16,1.16,0,0,1,.33.89v.4l-.05.62-.05.66V108q0,.52.33.52H70v0l-.07.4H68.82l-.31,0-.34.06,0-.38a.77.77,0,0,0,.4-.22.58.58,0,0,0,.12-.39l.06-1.84a1.13,1.13,0,0,0-.2-.72.69.69,0,0,0-.57-.25,1.12,1.12,0,0,0-.37.07l-.35.15a2.14,2.14,0,0,0-.28.17l-.18.12V108a.8.8,0,0,0,.07.4.28.28,0,0,0,.26.11h.33v0l-.08.4H65.63Z"/><path class="cls-3" d="M71.33,106.51v.15a2.44,2.44,0,0,0,.1.71,1.58,1.58,0,0,0,.28.54,1.29,1.29,0,0,0,.44.35,1.26,1.26,0,0,0,.56.12,2.17,2.17,0,0,0,.42,0l.37-.1.35-.15h.06l.1.27a5.62,5.62,0,0,1-.52.32,3.72,3.72,0,0,1-.46.22,1.26,1.26,0,0,1-.46.1,2.1,2.1,0,0,1-.8-.15,1.76,1.76,0,0,1-.62-.42,1.87,1.87,0,0,1-.4-.65,2.41,2.41,0,0,1-.14-.84,2.49,2.49,0,0,1,.17-.91,2.59,2.59,0,0,1,.44-.76,2.13,2.13,0,0,1,.65-.52,1.71,1.71,0,0,1,.79-.19,1.21,1.21,0,0,1,1.39,1.35v.26a.51.51,0,0,1,0,.2l-.12.11Zm1.72-.43a.34.34,0,0,0,.19-.07.27.27,0,0,0,0-.19.76.76,0,0,0-.2-.57.79.79,0,0,0-.57-.2,1,1,0,0,0-.75.29,1.37,1.37,0,0,0-.4.81Z"/><path class="cls-3" d="M78.4,109a3.57,3.57,0,0,1-.6,0,2.86,2.86,0,0,1-.46-.11,1.85,1.85,0,0,1-.4-.16l0-.09a4.23,4.23,0,0,1,.06-.48c0-.17,0-.31,0-.52a3.73,3.73,0,0,0,0-.64l.42,0a5.87,5.87,0,0,0,0,.82,1,1,0,0,0,.18.52.67.67,0,0,0,.37.24,2.35,2.35,0,0,0,.62.07,1.49,1.49,0,0,0,.94-.27.9.9,0,0,0,.35-.75.72.72,0,0,0-.12-.4,1.46,1.46,0,0,0-.32-.34,3.26,3.26,0,0,0-.45-.29l-.52-.28-.55-.31a3.23,3.23,0,0,1-.49-.35,1.55,1.55,0,0,1-.35-.43,1.12,1.12,0,0,1-.13-.54,1.46,1.46,0,0,1,.17-.68,1.7,1.7,0,0,1,.45-.55,2.22,2.22,0,0,1,.68-.37,2.59,2.59,0,0,1,.85-.13,4.14,4.14,0,0,1,.57,0l.45.08a2.89,2.89,0,0,1,.4.11l0,.06q0,.21-.08.47c0,.14,0,.31-.07.52s0,.39-.05.61l-.36,0-.06,0a1.09,1.09,0,0,1,0-.13v-.36a.82.82,0,0,0-.24-.67,1.45,1.45,0,0,0-.86-.19,1.35,1.35,0,0,0-.84.25.78.78,0,0,0-.33.64.72.72,0,0,0,.11.39,1.42,1.42,0,0,0,.28.32,2.53,2.53,0,0,0,.4.28l.48.26.62.32a3.45,3.45,0,0,1,.55.36,1.82,1.82,0,0,1,.4.44,1,1,0,0,1,.16.56,1.59,1.59,0,0,1-.17.73,1.71,1.71,0,0,1-.48.57,2.3,2.3,0,0,1-.73.38A3,3,0,0,1,78.4,109Z"/><path class="cls-3" d="M82.33,106.51v.15a2.44,2.44,0,0,0,.1.71,1.59,1.59,0,0,0,.28.54,1.29,1.29,0,0,0,.44.35,1.26,1.26,0,0,0,.56.12,2.16,2.16,0,0,0,.42,0l.37-.1.35-.15h.06l.1.27a5.62,5.62,0,0,1-.52.32,3.7,3.7,0,0,1-.46.22,1.25,1.25,0,0,1-.46.1,2.07,2.07,0,0,1-.8-.15,1.76,1.76,0,0,1-.62-.42,1.87,1.87,0,0,1-.39-.65,2.41,2.41,0,0,1-.14-.84,2.49,2.49,0,0,1,.17-.91,2.59,2.59,0,0,1,.44-.76,2.13,2.13,0,0,1,.65-.52,1.71,1.71,0,0,1,.79-.19,1.21,1.21,0,0,1,1.39,1.35v.26a.51.51,0,0,1,0,.2l-.12.11Zm1.72-.43a.33.33,0,0,0,.19-.07.27.27,0,0,0,0-.19.76.76,0,0,0-.2-.57.79.79,0,0,0-.57-.2,1,1,0,0,0-.75.29,1.37,1.37,0,0,0-.4.81Z"/><path class="cls-3" d="M88.92,108.09l.1.29a5.06,5.06,0,0,1-.47.32,2.94,2.94,0,0,1-.42.21,1,1,0,0,1-.39.09,2.14,2.14,0,0,1-.81-.14,1.69,1.69,0,0,1-.61-.41,1.92,1.92,0,0,1-.39-.65,2.45,2.45,0,0,1-.14-.85A2.63,2.63,0,0,1,86,106a2.35,2.35,0,0,1,.45-.76,2.07,2.07,0,0,1,.68-.52,2,2,0,0,1,.85-.18l.42,0,.35.07.33.08,0,.07a3.81,3.81,0,0,0-.08.37l-.07.41a4.81,4.81,0,0,0,0,.52l-.38,0v-.29a.72.72,0,0,0-.67-.77h-.1a1,1,0,0,0-.88.4,1.89,1.89,0,0,0-.3,1.15,2.14,2.14,0,0,0,.34,1.28,1.09,1.09,0,0,0,.93.47,1.55,1.55,0,0,0,.38,0l.34-.1.34-.16Z"/><path class="cls-3" d="M90.25,105.68q0-.52-.35-.52h-.23l0-.35.45-.08.43-.09.44-.1.06.11a2.18,2.18,0,0,0-.09.41q0,.29-.08.68c0,.26,0,.52-.06.82s0,.57,0,.85q0,.92.74.91a1.11,1.11,0,0,0,.61-.18l.52-.35v-2.16a.58.58,0,0,0-.1-.39.48.48,0,0,0-.36-.11h-.22l0-.34.52-.08.47-.09.47-.1.06.11a1.65,1.65,0,0,0-.08.41q0,.31-.07.75t0,1v1.1q0,.43.38.43a.7.7,0,0,0,.21,0l.18-.08a.65.65,0,0,0,.17-.12l.13.15-.29.37-.26.26a.4.4,0,0,1-.25.11.74.74,0,0,1-.83-.76h0a8.5,8.5,0,0,1-.81.56,1.27,1.27,0,0,1-.49.21,1.37,1.37,0,0,1-.92-.27,1,1,0,0,1-.32-.81Z"/><path class="cls-3" d="M94.74,108.64a1,1,0,0,0,.31-.13.44.44,0,0,0,.16-.2.8.8,0,0,0,.05-.27v-5q0-.52-.35-.52h-.23a.61.61,0,0,1,0-.08v-.26a2.75,2.75,0,0,0,.49-.07l.44-.09.44-.1.06.12a1.39,1.39,0,0,0-.06.32q0,.26-.07.68t-.06,1q0,.55,0,1.19t0,1.33v1.38a.8.8,0,0,0,.07.4.27.27,0,0,0,.25.12h.33v0l-.07.4H95.29l-.31,0-.34.06Z"/><path class="cls-3" d="M99.37,106.19a1.11,1.11,0,0,0-.21-.73.74.74,0,0,0-.61-.26,1.2,1.2,0,0,0-.43.07l-.35.16a2.47,2.47,0,0,0-.34.23l0,0-.11-.4.61-.33.52-.22a1.17,1.17,0,0,1,.41-.1,1.35,1.35,0,0,1,1,.32,1.15,1.15,0,0,1,.34.88q0,.13,0,.4l-.06.59-.07.64q0,.31,0,.52,0,.43.38.43a.7.7,0,0,0,.21,0l.18-.08a.66.66,0,0,0,.17-.12l.13.15-.23.32a2.12,2.12,0,0,1-.26.25.92.92,0,0,1-.32.18.74.74,0,0,1-.83-.76h0a5,5,0,0,1-.61.52.85.85,0,0,1-.41.2,1.33,1.33,0,0,1-.48-.08,1.1,1.1,0,0,1-.38-.24,1.07,1.07,0,0,1-.25-.37,1.21,1.21,0,0,1-.09-.47.84.84,0,0,1,.13-.48.63.63,0,0,1,.36-.27l1.76-.49Zm0,.77-1.26.38a.37.37,0,0,0-.27.39.59.59,0,0,0,.18.44.63.63,0,0,0,.46.18.92.92,0,0,0,.41-.12,1.78,1.78,0,0,0,.43-.32Z"/><path class="cls-3" d="M102,108.4a1.27,1.27,0,0,0,.09-.59v-2.07a.85.85,0,0,0-.08-.44.3.3,0,0,0-.27-.13h-.2l0-.07,0-.29.43-.08.4-.09.42-.1.07.06c0,.1,0,.21,0,.32a1.62,1.62,0,0,1,0,.31,2.43,2.43,0,0,0,0,.33l0,0a2.56,2.56,0,0,1,.31-.4,2.68,2.68,0,0,1,.35-.31,1.89,1.89,0,0,1,.35-.21.77.77,0,0,1,.31-.07h.29l0,0-.07.46q0,.2-.05.43t0,.44l-.36,0a1.59,1.59,0,0,0-.05-.52.2.2,0,0,0-.2-.12.76.76,0,0,0-.44.17,1.74,1.74,0,0,0-.43.47q0,.49,0,.87v1a.73.73,0,0,0,.09.43.44.44,0,0,0,.36.11h.41v0l-.08.41h-1.92l0-.37A.46.46,0,0,0,102,108.4Z"/><path class="cls-3" d="M109.66,109a3.16,3.16,0,0,1-1.15-.2,2.41,2.41,0,0,1-.88-.58,2.59,2.59,0,0,1-.56-.91,3.42,3.42,0,0,1-.2-1.19,3.47,3.47,0,0,1,.24-1.31,3.06,3.06,0,0,1,1.7-1.72,3.38,3.38,0,0,1,1.3-.25,5.14,5.14,0,0,1,.58,0l.52.08.52.11,0,.06a4.52,4.52,0,0,0-.09.46c0,.14-.06.31-.08.52s0,.39-.06.61l-.44,0a1.4,1.4,0,0,1,0-.15v-.31q0-.86-1.37-.86a2,2,0,0,0-.85.17,1.82,1.82,0,0,0-.65.49,2.19,2.19,0,0,0-.41.76,3.25,3.25,0,0,0-.14,1,3.81,3.81,0,0,0,.16,1.12,2.59,2.59,0,0,0,.43.86,2,2,0,0,0,.67.55,1.93,1.93,0,0,0,.87.2,1.44,1.44,0,0,0,1-.36,2.17,2.17,0,0,0,.56-1.11l.44-.05q-.06.25-.1.52l-.09.49q0,.26-.06.52l-.06.08a4.51,4.51,0,0,1-.52.19,4.9,4.9,0,0,1-1.37.19Z"/><path class="cls-3" d="M112.65,108.64a1,1,0,0,0,.31-.13.44.44,0,0,0,.16-.2.8.8,0,0,0,.05-.27q0-.16,0-.38v-4.57q0-.52-.35-.52h-.23a.61.61,0,0,1,0-.08v-.26a2.75,2.75,0,0,0,.49-.07l.44-.09.44-.1.06.12a1.39,1.39,0,0,0-.06.32q0,.26-.07.68t-.06,1q0,.55,0,1.19t0,1.33v1.38a.8.8,0,0,0,.07.4.27.27,0,0,0,.25.12h.33v0l-.07.4H113.2l-.31,0-.34.06Z"/><path class="cls-3" d="M115.67,106.51v.15a2.44,2.44,0,0,0,.1.71,1.59,1.59,0,0,0,.28.54,1.29,1.29,0,0,0,.44.35,1.26,1.26,0,0,0,.56.12,2.16,2.16,0,0,0,.42,0l.37-.1.35-.15h.06l.1.27a5.62,5.62,0,0,1-.52.32,3.7,3.7,0,0,1-.46.22,1.25,1.25,0,0,1-.46.1,2.07,2.07,0,0,1-.8-.15,1.76,1.76,0,0,1-.62-.42,1.87,1.87,0,0,1-.39-.65,2.41,2.41,0,0,1-.14-.84,2.49,2.49,0,0,1,.17-.91,2.59,2.59,0,0,1,.44-.76,2.13,2.13,0,0,1,.65-.52,1.71,1.71,0,0,1,.79-.19,1.21,1.21,0,0,1,1.39,1.35v.26a.51.51,0,0,1,0,.2l-.12.11Zm1.72-.43a.33.33,0,0,0,.19-.07.27.27,0,0,0,0-.19.76.76,0,0,0-.2-.57.79.79,0,0,0-.57-.2,1,1,0,0,0-.75.29,1.37,1.37,0,0,0-.4.81Z"/><path class="cls-3" d="M119.73,108.4a1.27,1.27,0,0,0,.09-.59v-2.07a.85.85,0,0,0-.08-.44.29.29,0,0,0-.27-.13h-.2l0-.07,0-.29.43-.08.4-.09.42-.1.07.06c0,.1,0,.21,0,.32a1.62,1.62,0,0,1,0,.31,2.35,2.35,0,0,0,0,.33l0,0a2.53,2.53,0,0,1,.31-.4,2.65,2.65,0,0,1,.35-.31,1.87,1.87,0,0,1,.35-.21.77.77,0,0,1,.31-.07h.29l0,0-.07.46q0,.2-.05.43c0,.16,0,.31,0,.44l-.36,0a1.61,1.61,0,0,0-.05-.52.2.2,0,0,0-.2-.12.76.76,0,0,0-.44.17,1.75,1.75,0,0,0-.43.47q0,.49,0,.87,0,.17,0,.34v.31q0,.14,0,.24t0,.14a.73.73,0,0,0,.09.43.44.44,0,0,0,.36.11h.41v0l-.08.41h-1.92l0-.37A.46.46,0,0,0,119.73,108.4Z"/><path class="cls-3" d="M124.49,107.7h-.26l-.28-.06q-.39.21-.39.41t.27.33a2.59,2.59,0,0,0,.85.13,4.16,4.16,0,0,1,1.55.28.75.75,0,0,1,.45.71,1.12,1.12,0,0,1-.2.63,2.11,2.11,0,0,1-.52.52,2.73,2.73,0,0,1-1.6.52,1.52,1.52,0,0,1-1-.33,1.15,1.15,0,0,1-.37-.91,1.87,1.87,0,0,1,.27-.29l.31-.26.35-.27v-.06a1.42,1.42,0,0,1-.4-.11,1.24,1.24,0,0,1-.32-.21,1,1,0,0,1-.21-.27.69.69,0,0,1-.08-.32,1.88,1.88,0,0,1,.24-.22l.26-.19.28-.19v0a1.26,1.26,0,0,1-.52-.52,1.55,1.55,0,0,1,0-1.38,1.75,1.75,0,0,1,.38-.52,1.82,1.82,0,0,1,.55-.36,1.67,1.67,0,0,1,.66-.13,2.29,2.29,0,0,1,.52.05,1.89,1.89,0,0,0,.41.05,1.39,1.39,0,0,0,.4-.07l.42-.09.47-.12,0,0-.1.52-.25,0-.26,0H126l0,0a1.38,1.38,0,0,1,.35.94,1.51,1.51,0,0,1-.14.66,1.69,1.69,0,0,1-.39.52,1.8,1.8,0,0,1-.58.35A2.07,2.07,0,0,1,124.49,107.7Zm.22-.41a.87.87,0,0,0,.67-.27,1.07,1.07,0,0,0,.25-.74,1.27,1.27,0,0,0-.3-.87,1,1,0,0,0-.77-.34.86.86,0,0,0-.68.27,1.08,1.08,0,0,0-.25.75,1.26,1.26,0,0,0,.29.87,1,1,0,0,0,.79.33Zm0,3.42a1.78,1.78,0,0,0,.52-.07,1.58,1.58,0,0,0,.44-.21,1.14,1.14,0,0,0,.3-.29.61.61,0,0,0,.11-.35.36.36,0,0,0-.07-.23.66.66,0,0,0-.27-.17,3.1,3.1,0,0,0-.55-.14l-.91-.14a2,2,0,0,0-.29.27,1.6,1.6,0,0,0-.2.27.59.59,0,0,0-.09.31.66.66,0,0,0,.27.56,1.23,1.23,0,0,0,.73.2Z"/><path class="cls-3" d="M129.2,108.07l.35-.84q.19-.46.35-.87l.27-.72a1.67,1.67,0,0,0,.11-.38c0-.16-.12-.24-.35-.24h-.43v0l.06-.31h1.7l-.06.35a.54.54,0,0,0-.32.15,1.26,1.26,0,0,0-.21.38l-1.2,2.83q-.36.83-.62,1.37a5.77,5.77,0,0,1-.48.85,1.37,1.37,0,0,1-.46.43,1.08,1.08,0,0,1-.52.11.14.14,0,0,1-.1-.07l-.13-.16-.12-.18a.31.31,0,0,1-.05-.13l0-.07a1.51,1.51,0,0,0,1-.43,3.26,3.26,0,0,0,.8-1.21l-.26-.8q-.15-.46-.32-.93t-.34-.92l-.32-.74a.85.85,0,0,0-.26-.34.69.69,0,0,0-.38-.11v0l.06-.31h1.53l.35,0v0l-.06.29a1.55,1.55,0,0,0-.44.07.18.18,0,0,0-.11.18,1.09,1.09,0,0,0,0,.22,1.78,1.78,0,0,0,.09.36c0,.14.08.29.13.46l.15.52q.18.59.42,1.3Z"/><path class="cls-3" d="M133.54,108.64a.77.77,0,0,0,.4-.22.58.58,0,0,0,.12-.39v-2.36q0-.52-.35-.52h-.23l0-.35.47-.08.43-.09.44-.1,0,.11a1.71,1.71,0,0,0-.08.42q0,.32-.07.78t0,1v1.1q0,.55.33.52h.33v0l-.07.4h-1.14l-.31,0-.34.06Zm.79-5.33a.44.44,0,0,1-.33-.13.48.48,0,0,1-.12-.35.52.52,0,0,1,.48-.55h.06a.44.44,0,0,1,.33.13.47.47,0,0,1,.13.35.52.52,0,0,1-.48.55Z"/><path class="cls-3" d="M138.75,108.64a.77.77,0,0,0,.4-.22.58.58,0,0,0,.12-.39l0-1.84a1.13,1.13,0,0,0-.2-.72.69.69,0,0,0-.57-.25,1.14,1.14,0,0,0-.35.06,2.1,2.1,0,0,0-.33.13l-.28.16-.19.13v.58l0,.67v1a.79.79,0,0,0,.07.4.28.28,0,0,0,.26.11H138v0l-.08.4h-1.45l-.32,0v-.37a.66.66,0,0,0,.38-.17.55.55,0,0,0,.11-.38v-2.3a.72.72,0,0,0-.1-.44.43.43,0,0,0-.35-.12h-.1l0,0,0-.31.48-.08.42-.09.41-.09.06.07a1.37,1.37,0,0,0,0,.19.48.48,0,0,1,0,.2c0,.08,0,.15,0,.23v0l.26-.17.39-.24.4-.21a.81.81,0,0,1,.31-.09,1.31,1.31,0,0,1,.93.32,1.14,1.14,0,0,1,.35.88v.4c0,.19,0,.4,0,.62s0,.44,0,.66,0,.39,0,.52q0,.52.33.52h.33v0l-.07.4h-1.14l-.31,0-.34.06Z"/><path class="cls-3" d="M62.6,116.78a.45.45,0,0,0-.11-.35.72.72,0,0,0-.42-.11l0-.06,0-.28a3.54,3.54,0,0,0,.43-.26l.37-.27.35-.32.19.07a1.15,1.15,0,0,0,0,.18,1.41,1.41,0,0,0,0,.22v.3l1.37,0,0,0-.08.52-1.35,0q0,.44,0,1t0,1.3a1,1,0,0,0,.17.67.7.7,0,0,0,.56.2h.22l.21-.06.21-.08.09.24-.39.28-.31.19a.52.52,0,0,1-.24.09,1.26,1.26,0,0,1-.89-.26,1.19,1.19,0,0,1-.26-.87Z"/><path class="cls-3" d="M65.23,119.72a.6.6,0,0,0,.38-.14.52.52,0,0,0,.11-.37v-5q0-.48-.35-.49h-.2l0,0,0-.3.49-.07.44-.09.44-.1.06.12a1,1,0,0,0-.07.32q0,.26-.06.69t-.05,1q0,.56,0,1.2l.24-.17.39-.24.42-.22a.86.86,0,0,1,.34-.1,1.32,1.32,0,0,1,.95.31,1.16,1.16,0,0,1,.33.89v.4L69,118l-.05.66a2.56,2.56,0,0,0,0,.52q0,.52.33.52h.33v0l-.07.4H68.39l-.31,0-.34.06,0-.38a.77.77,0,0,0,.4-.22.58.58,0,0,0,.12-.39l.06-1.84a1.13,1.13,0,0,0-.2-.72.69.69,0,0,0-.57-.25,1.12,1.12,0,0,0-.37.07l-.35.15a2.07,2.07,0,0,0-.28.17l-.18.12v2.26a.8.8,0,0,0,.07.4.28.28,0,0,0,.26.12h.33v0l-.08.4H65.2Z"/><path class="cls-3" d="M70.91,117.68v.15a2.44,2.44,0,0,0,.1.71,1.59,1.59,0,0,0,.28.54,1.29,1.29,0,0,0,.44.35,1.26,1.26,0,0,0,.56.12,2.17,2.17,0,0,0,.42,0l.37-.1.35-.15h.06l.1.27a5.62,5.62,0,0,1-.52.32,3.72,3.72,0,0,1-.46.22,1.26,1.26,0,0,1-.46.1,2.1,2.1,0,0,1-.8-.15,1.76,1.76,0,0,1-.62-.42,1.88,1.88,0,0,1-.4-.65,2.41,2.41,0,0,1-.14-.84,2.49,2.49,0,0,1,.17-.91,2.59,2.59,0,0,1,.44-.76,2.13,2.13,0,0,1,.65-.52,1.71,1.71,0,0,1,.79-.19,1.21,1.21,0,0,1,1.39,1.35v.26a.92.92,0,0,1,0,.2l-.12.11Zm1.72-.43a.33.33,0,0,0,.19-.07.27.27,0,0,0,0-.19.76.76,0,0,0-.2-.57.79.79,0,0,0-.57-.2,1,1,0,0,0-.75.29,1.37,1.37,0,0,0-.4.81Z"/><path class="cls-3" d="M79.63,120.26l-1.81-5h0q-.09,1.1-.16,2,0,.38-.06.74t-.05.67a2.62,2.62,0,0,1,0,.52.58.58,0,0,0,0,.25.25.25,0,0,0,.21.29h.46v0l-.08.42H76.87l-.26,0-.26,0,0-.43a.64.64,0,0,0,.42-.19,1,1,0,0,0,.17-.52l.06-.52.08-.77q0-.42.09-.88l.09-.85q0-.39.07-.67V115a.4.4,0,0,0-.19-.36,1.37,1.37,0,0,0-.62-.15l0,0,.07-.33.39,0h1.27q.32,1,.6,1.87t.52,1.46q.25.72.48,1.29h0q.22-.58.48-1.29l.52-1.45q.29-.84.63-1.85h1.22l.4,0v0l0,.35a1.29,1.29,0,0,0-.57.16.4.4,0,0,0-.17.35v.28a3.83,3.83,0,0,0,0,.52c0,.2,0,.44,0,.7s0,.52.05.78l.06.79q0,.39.06.72a4.25,4.25,0,0,0,.07.44,1.28,1.28,0,0,0,.08.27.27.27,0,0,0,.12.13.41.41,0,0,0,.19,0h.26v0l-.08.42H82l-.31,0-.34,0,0-.43q.55-.06.55-.47v-.26a2.91,2.91,0,0,0,0-.52l-.05-.65q0-.36-.06-.72-.08-.86-.16-1.89h0l-1.79,5Z"/><path class="cls-3" d="M84.26,119.81a.77.77,0,0,0,.4-.22.58.58,0,0,0,.12-.39v-2.36q0-.52-.35-.52H84.2l0-.35.47-.08.43-.09.44-.1,0,.11a1.72,1.72,0,0,0-.08.42q0,.32-.07.78t0,1v1.09c0,.35.11.52.33.52h.33v0l-.07.4H84.87l-.31,0-.34.06Zm.79-5.33a.44.44,0,0,1-.33-.13.48.48,0,0,1-.12-.35.52.52,0,0,1,.48-.55h.06a.44.44,0,0,1,.33.13.47.47,0,0,1,.13.35.52.52,0,0,1-.48.55Z"/><path class="cls-3" d="M89.74,119.51a4,4,0,0,1-1.16.66,1.86,1.86,0,0,1-.73-.14,1.6,1.6,0,0,1-.57-.4,1.84,1.84,0,0,1-.37-.63,2.36,2.36,0,0,1-.13-.8,2.47,2.47,0,0,1,.18-.95,2.5,2.5,0,0,1,.52-.78,2.31,2.31,0,0,1,.74-.52,2.16,2.16,0,0,1,.9-.19h.29l.35,0v-1.55q0-.52-.35-.52h-.23l0-.35a2.75,2.75,0,0,0,.49-.07l.42,0,.44-.1.06.12a2.52,2.52,0,0,0-.09.62q0,.52-.08,1.34t-.06,1.82v2q0,.43.38.43a.7.7,0,0,0,.21,0l.18-.08a.63.63,0,0,0,.17-.12l.13.15a2.55,2.55,0,0,1-.24.33A2,2,0,0,1,91,120a.89.89,0,0,1-.31.17.73.73,0,0,1-.82-.63v0Zm0-3-.24-.1-.28-.08a1.94,1.94,0,0,0-.38,0,1.22,1.22,0,0,0-1,.42,1.74,1.74,0,0,0-.36,1.16,2.27,2.27,0,0,0,.09.66,1.7,1.7,0,0,0,.26.52,1.32,1.32,0,0,0,.39.35.94.94,0,0,0,.49.13.88.88,0,0,0,.37-.08,2.29,2.29,0,0,0,.33-.17,2.84,2.84,0,0,0,.35-.25Z"/><path class="cls-3" d="M94.74,119.51a4,4,0,0,1-1.16.66,1.86,1.86,0,0,1-.73-.14,1.6,1.6,0,0,1-.57-.4,1.84,1.84,0,0,1-.37-.63,2.36,2.36,0,0,1-.13-.8,2.46,2.46,0,0,1,.18-.95,2.5,2.5,0,0,1,.52-.78,2.31,2.31,0,0,1,.74-.52,2.16,2.16,0,0,1,.9-.19h.29l.35,0v-1.55q0-.52-.35-.52h-.23l0-.35a2.63,2.63,0,0,0,.49-.07l.44-.09.44-.1.06.12a2.53,2.53,0,0,0-.09.62q0,.52-.08,1.34T95.41,117v2q0,.43.38.43a.7.7,0,0,0,.21,0l.18-.08a.64.64,0,0,0,.17-.12l.13.15a2.65,2.65,0,0,1-.24.33A2,2,0,0,1,96,120a.88.88,0,0,1-.31.17.73.73,0,0,1-.82-.63v0Zm0-3-.24-.1-.28-.08a1.94,1.94,0,0,0-.38,0,1.22,1.22,0,0,0-1,.42,1.74,1.74,0,0,0-.36,1.16,2.27,2.27,0,0,0,.09.66,1.7,1.7,0,0,0,.26.52,1.32,1.32,0,0,0,.39.35,1,1,0,0,0,.49.13.88.88,0,0,0,.35-.07,2.29,2.29,0,0,0,.33-.17,2.88,2.88,0,0,0,.35-.25Z"/><path class="cls-3" d="M96.73,119.81a1,1,0,0,0,.31-.13.44.44,0,0,0,.16-.2.81.81,0,0,0,.05-.27v-5q0-.52-.35-.52h-.23a.61.61,0,0,1,0-.08v-.26a2.75,2.75,0,0,0,.49-.07l.44-.09.44-.1.06.12a1.39,1.39,0,0,0-.06.32q0,.26-.07.68t-.06,1q0,.55,0,1.19t0,1.32q0,.69,0,1.38a.8.8,0,0,0,.07.4.27.27,0,0,0,.25.12h.33v0l-.07.4H97.28l-.31,0-.34.06Z"/><path class="cls-3" d="M99.75,117.68v.15a2.44,2.44,0,0,0,.1.71,1.59,1.59,0,0,0,.28.54,1.29,1.29,0,0,0,.44.35,1.26,1.26,0,0,0,.56.12,2.16,2.16,0,0,0,.42,0l.37-.1.35-.15h.06l.1.27a5.61,5.61,0,0,1-.52.32,3.7,3.7,0,0,1-.46.22,1.25,1.25,0,0,1-.46.1,2.07,2.07,0,0,1-.8-.15,1.76,1.76,0,0,1-.62-.42,1.88,1.88,0,0,1-.39-.65,2.41,2.41,0,0,1-.14-.84,2.5,2.5,0,0,1,.17-.91,2.59,2.59,0,0,1,.44-.76,2.13,2.13,0,0,1,.65-.52,1.71,1.71,0,0,1,.79-.19,1.21,1.21,0,0,1,1.39,1.35v.26a.51.51,0,0,1,0,.2l-.12.11Zm1.72-.43a.33.33,0,0,0,.19-.07.27.27,0,0,0,0-.19.76.76,0,0,0-.2-.57.79.79,0,0,0-.57-.2,1,1,0,0,0-.75.29,1.37,1.37,0,0,0-.4.81Z"/><path class="cls-3" d="M109.35,119a1.4,1.4,0,0,0,.12.29.7.7,0,0,0,.17.2.68.68,0,0,0,.25.11l.35.06v0l-.07.38h-1.51l-.44,0-.43,0,0-.07,0-.36a2.35,2.35,0,0,0,.66-.11.25.25,0,0,0,.17-.24,1.55,1.55,0,0,0-.08-.44l-.31-1h-1l-.56,0-.45,0-.35,1a1.34,1.34,0,0,0-.08.36.33.33,0,0,0,.13.29.79.79,0,0,0,.43.09h.52v0l-.06.4-.42,0-.41,0h-1.48l.07-.44a.68.68,0,0,0,.41-.18,1.63,1.63,0,0,0,.31-.52l1.82-4.76.58-.16h.07l.48,1.71.22.78q.12.41.25.83l.26.85A8.21,8.21,0,0,1,109.35,119Zm-2.9-1.49h1.26l.42,0-.73-2.44h-.07Z"/><path class="cls-3" d="M112.27,118.88H112l-.28-.06q-.39.21-.39.41t.27.33a2.59,2.59,0,0,0,.85.13A4.17,4.17,0,0,1,114,120a.75.75,0,0,1,.45.71,1.12,1.12,0,0,1-.2.63,2.07,2.07,0,0,1-.52.52,2.72,2.72,0,0,1-1.6.52,1.52,1.52,0,0,1-1-.33,1.15,1.15,0,0,1-.37-.91,1.85,1.85,0,0,1,.27-.3l.31-.26.35-.27v-.06a1.39,1.39,0,0,1-.4-.11,1.22,1.22,0,0,1-.32-.21,1,1,0,0,1-.21-.27.69.69,0,0,1-.08-.32,1.88,1.88,0,0,1,.24-.22l.26-.19.28-.19v0a1.27,1.27,0,0,1-.52-.52,1.55,1.55,0,0,1,0-1.38,1.76,1.76,0,0,1,.38-.52,1.82,1.82,0,0,1,.55-.36,1.67,1.67,0,0,1,.66-.13,2.26,2.26,0,0,1,.52.05,1.92,1.92,0,0,0,.41.05l.4-.07.42-.09.47-.12,0,0-.1.52-.25,0-.26,0h-.29l0,0a1.38,1.38,0,0,1,.37.94,1.51,1.51,0,0,1-.14.66,1.68,1.68,0,0,1-.39.52,1.81,1.81,0,0,1-.58.35A2.07,2.07,0,0,1,112.27,118.88Zm.22-.41a.87.87,0,0,0,.67-.27,1.07,1.07,0,0,0,.25-.74,1.27,1.27,0,0,0-.3-.87,1,1,0,0,0-.77-.34.86.86,0,0,0-.68.27,1.08,1.08,0,0,0-.25.75,1.26,1.26,0,0,0,.29.87,1,1,0,0,0,.79.33Zm0,3.42a1.78,1.78,0,0,0,.52-.07,1.59,1.59,0,0,0,.44-.21,1.14,1.14,0,0,0,.3-.29.61.61,0,0,0,.11-.35.36.36,0,0,0-.07-.23.66.66,0,0,0-.27-.17,3.07,3.07,0,0,0-.55-.14l-.91-.14a2,2,0,0,0-.29.27,1.59,1.59,0,0,0-.2.27.59.59,0,0,0-.09.31.66.66,0,0,0,.27.56,1.23,1.23,0,0,0,.73.21Z"/><path class="cls-3" d="M115.87,117.68v.15a2.44,2.44,0,0,0,.1.71,1.58,1.58,0,0,0,.28.54,1.29,1.29,0,0,0,.44.35,1.26,1.26,0,0,0,.56.12,2.17,2.17,0,0,0,.42,0l.37-.1.35-.15h.06l.1.27a5.62,5.62,0,0,1-.52.32,3.74,3.74,0,0,1-.46.22,1.26,1.26,0,0,1-.46.1,2.1,2.1,0,0,1-.8-.15,1.76,1.76,0,0,1-.62-.42,1.88,1.88,0,0,1-.4-.65,2.42,2.42,0,0,1-.14-.84,2.49,2.49,0,0,1,.17-.91,2.59,2.59,0,0,1,.44-.76,2.14,2.14,0,0,1,.65-.52,1.71,1.71,0,0,1,.79-.19,1.21,1.21,0,0,1,1.39,1.35v.26a.51.51,0,0,1,0,.2l-.12.11Zm1.72-.43a.33.33,0,0,0,.19-.07.27.27,0,0,0,0-.19.76.76,0,0,0-.2-.57.79.79,0,0,0-.57-.2,1,1,0,0,0-.75.29,1.37,1.37,0,0,0-.39.81Z"/><path class="cls-3" d="M120.61,120.2a3.36,3.36,0,0,1-.46,0l-.35-.07a1.29,1.29,0,0,1-.3-.1l0-.07,0-.23a1.2,1.2,0,0,1,0-.35c0-.12,0-.25,0-.37a.93.93,0,0,0,0-.29l.33,0a1.42,1.42,0,0,0,.2.86.85.85,0,0,0,.7.25,1.07,1.07,0,0,0,.59-.16.46.46,0,0,0,.24-.39.52.52,0,0,0,0-.21.64.64,0,0,0-.17-.21,2.91,2.91,0,0,0-.34-.24l-.52-.3a2.59,2.59,0,0,1-.77-.54.9.9,0,0,1-.24-.61,1.1,1.1,0,0,1,.13-.52,1.32,1.32,0,0,1,.36-.42,1.77,1.77,0,0,1,.54-.28,2.19,2.19,0,0,1,.68-.1h.35l.3.05.28.07v0a2.32,2.32,0,0,1-.07.34c0,.12,0,.23-.06.36s0,.28,0,.44l-.35,0a.52.52,0,0,1,0-.1.7.7,0,0,1,0-.09.74.74,0,0,0,0-.08.61.61,0,0,0-.18-.49.89.89,0,0,0-.58-.16.93.93,0,0,0-.52.15.43.43,0,0,0-.22.36.6.6,0,0,0,.19.42,2.37,2.37,0,0,0,.63.42q.37.2.63.36a2.66,2.66,0,0,1,.4.31.89.89,0,0,1,.21.3.85.85,0,0,1,.06.33,1,1,0,0,1-.14.52,1.51,1.51,0,0,1-.37.43,1.81,1.81,0,0,1-.52.29A2,2,0,0,1,120.61,120.2Z"/><path class="cls-3" d="M29.24,128.59a2.59,2.59,0,0,1-2-1c-1.26-1.74-.52-4,.07-5.62.09-.28.19-.54.26-.8.7-2.3,1.58-4.56,2.43-6.72v-.06c.83-2.14,1.67-4.3,2.35-6.46.34-1.19.67-2.42,1-3.65a27.6,27.6,0,0,0,.64-4.54,2.3,2.3,0,0,1,1-1.8c1.55-6.31,3.1-13.21,4.66-21.07,1-5.14,2-10.38,3-15.44l.52-2.66L44,53.4l-.21-.76,0-.23a3.7,3.7,0,0,1,.2-.62l.21-.56a1.62,1.62,0,0,1,.16-.34l.07-.41q-.05-.19-.09-.29l-.09-.26,1.55-8.33a2.15,2.15,0,0,0-.05-.27.87.87,0,0,0-.08-.28l0-.05v-.16h-.11c-.34-.12-.68-.23-1-.32a5.74,5.74,0,0,1-1.18-.47,1.6,1.6,0,0,1-.84-1.8,1.65,1.65,0,0,1,.48-.95,2.85,2.85,0,0,1,.59-.4,2.35,2.35,0,0,1,1.22-.44,2.07,2.07,0,0,0,.52-.1l.52-.18,1.07-.38.18-1.1a26.67,26.67,0,0,1,3.09-14c2-4,5.69-11.48,11.46-12.36a8.22,8.22,0,0,1,1.24-.09c4.52,0,8.56,3.56,8.82,7.76a8.28,8.28,0,0,1-.89,4.25,7,7,0,0,1-2.19,5,7.08,7.08,0,0,1-4.82,2,5,5,0,0,1-4.66-2.68A5.89,5.89,0,0,1,59,19.32a4.85,4.85,0,0,1,3.51-2.72,2.56,2.56,0,0,1,.44,0,2.41,2.41,0,0,1,2.32,1.74,2.21,2.21,0,0,1,0,1.37l.36-.31c0-.11.06-.22.08-.33s0-.07,0-.1a4.57,4.57,0,0,0-.44-1,5.7,5.7,0,0,0-4-2.78A8.14,8.14,0,0,0,60,16.62a2.26,2.26,0,0,1-.39,1.09,17.06,17.06,0,0,0-1.9,5.21c-.18.72-.37,1.47-.58,2.19a2.2,2.2,0,0,1,0,.35,34.1,34.1,0,0,1-.6,8.15c0,.73.06,1.46.12,2.19a22.59,22.59,0,0,1,2.22-.86c.74-.24,1.49-.47,2.23-.67l2-.52.12,0,.21-.17h.36a1.55,1.55,0,0,1,.59.14l.34.13.35.15.11,0a13,13,0,0,0,1.85.52,11.72,11.72,0,0,1,2.15.62,4.89,4.89,0,0,1,1.18.6,7.61,7.61,0,0,1,.83.68l.67.62a5.75,5.75,0,0,0,.6.47h.07a1.74,1.74,0,0,1,1,.32,1.46,1.46,0,0,1,.49,1v0a1.43,1.43,0,0,1,.31.39l.25.42a2.39,2.39,0,0,1,.3.65,26.77,26.77,0,0,1,1.31,4.46,13.38,13.38,0,0,1,0,5.09,18.55,18.55,0,0,1-3.35,7.89A22.89,22.89,0,0,1,66,63.61l-.24.14h-.08a2,2,0,0,1-.37.14c-1.55.52-3.1,1-4.68,1.36a19.86,19.86,0,0,1-4.9.63,15.13,15.13,0,0,1-2-.13c-.56-.07-2.23-.22-2.86-.22h-.77L48.51,75.63c.31,3-.77,5.47-1.8,7.87a33.23,33.23,0,0,0-1.26,3.24c-.93,3-1.69,6.09-2.42,9.11-.34,1.39-.67,2.77-1,4.14a4.29,4.29,0,0,1-.36,1.7c-.19.44-.4.87-.61,1.3s-.48,1-.68,1.49a15.52,15.52,0,0,1-.43,1.84c-.11.35-.24.71-.4,1.15a2.59,2.59,0,0,1-.58,1.55,2.31,2.31,0,0,0-.17.25l-.31.7a4.9,4.9,0,0,0-.17.67,2,2,0,0,1-.41.92,2.14,2.14,0,0,1-.08,2.31c-.4.62-.8,1.29-1.24,2.07a7.37,7.37,0,0,1-1.48,3,32.59,32.59,0,0,0-2.13,7.49,2.07,2.07,0,0,1-2.07,1.81,2.43,2.43,0,0,1-.47,0A2.17,2.17,0,0,1,29.24,128.59ZM51.43,59.7a.7.7,0,0,0,.08.13l.09,0L52,60a2.89,2.89,0,0,1,.88.35,8.73,8.73,0,0,1,1,.64l1,.69c.23.17.47.32.7.47a21.39,21.39,0,0,0,5.77-1.34l.48-.58.87-1q.45-.52.82-1l.41-.52a3.52,3.52,0,0,1,.33-.42,3.44,3.44,0,0,1,.36-.37l.21-.28L65.2,56l.38-.52.19-.24a2.93,2.93,0,0,0,.15-.41q.15-.52.32-1a6.32,6.32,0,0,1,.46-1,2.43,2.43,0,0,1,.41-.56l.34-1.86.13-.1a.7.7,0,0,1,.06-.18,3.89,3.89,0,0,1,.16-.47V49.3l0-.09a2.17,2.17,0,0,1-.14-.32l-.06-.19v-.2c0-.37,0-.71.06-1a1.36,1.36,0,0,0-.08-.52v-.05q-.09-.29-.26-.78l-.38-1c-.13-.35-.24-.63-.35-.88l-.16-.37-.22-.27c-.11-.13-.33-.38-.52-.58l-.59-.66a3.47,3.47,0,0,0-.28-.29l-.05,0-.13-.08L64,41.6a5.86,5.86,0,0,0-.58-.27l-.29-.11h-.07l-.09,0-.81-.34-1-.35-.93-.31L60,40.11a2.4,2.4,0,0,1-.47,0h-2q-.44,0-.9,0a2.87,2.87,0,0,0-.71.14,2.07,2.07,0,0,0-.56.28A1.31,1.31,0,0,0,55,41l-.57,1L51.26,59.22Z"/><path class="cls-2" d="M62.83,9.25c3.78,0,7.55,2.9,7.79,6.81a7.24,7.24,0,0,1-.9,3.94,5.93,5.93,0,0,1-1.88,4.54,6.07,6.07,0,0,1-4.14,1.69A4,4,0,0,1,60,24.09c-1.29-2.43-.16-6,2.71-6.47H63A1.29,1.29,0,0,1,63.75,20c-.67.42,0,1,.64,1.33a5.61,5.61,0,0,0,2.17-1.4,5.58,5.58,0,0,0,.18-.65c0-.2,0-.26.07-.39a5.69,5.69,0,0,0-.61-1.52A6.51,6.51,0,0,0,61,14h0a9.2,9.2,0,0,0-2,2.25,1.15,1.15,0,0,1-.21.81c-1.49,2.25-1.88,5.37-2.7,8a1.23,1.23,0,0,1,.09.41,32.89,32.89,0,0,1-.64,8.05q0,1.23.13,2.47a1.08,1.08,0,0,1-.92,1.22h-.11a3.87,3.87,0,0,0,.36.64l.12,0,.21,0a9,9,0,0,1,1.79-1A21.46,21.46,0,0,1,59.28,36q1.11-.36,2.18-.65l2-.52.23-.07a.58.58,0,0,0,.2-.1l.21.07.34.14.32.14a.69.69,0,0,0,.19.07,14,14,0,0,0,2,.52,10.63,10.63,0,0,1,2,.56,4,4,0,0,1,1,.48,6.53,6.53,0,0,1,.71.58l.68.64a7.19,7.19,0,0,0,.88.67,1.12,1.12,0,0,0,.39.07.82.82,0,0,1,.42.1s.08.13.1.33a2.45,2.45,0,0,0,.06.36s.05.11.16.21a.64.64,0,0,1,.2.21l.28.47a1,1,0,0,1,.18.39A25.59,25.59,0,0,1,75.2,45a12.29,12.29,0,0,1,0,4.7A17.45,17.45,0,0,1,72,57.14a21.77,21.77,0,0,1-6.53,5.57.88.88,0,0,0-.22.09.88.88,0,0,1-.22.09q-2.32.76-4.66,1.36a18.73,18.73,0,0,1-4.66.6,14,14,0,0,1-1.85-.12c-.61-.08-2.32-.23-3-.23H49.75a2.84,2.84,0,0,0-.57.52l-1.71,10.6c.47,4-1.84,7.08-3,10.83-1.36,4.37-2.33,8.9-3.47,13.34a.1.1,0,0,1,0,.07,3.22,3.22,0,0,1-.27,1.44c-.43,1-.95,1.91-1.33,2.91a15,15,0,0,1-.43,1.83c-.14.43-.29.86-.46,1.28a1.55,1.55,0,0,1-.35,1.1,3.5,3.5,0,0,0-.28.42l-.35.8a6,6,0,0,0-.22.86,1,1,0,0,1-.42.66c-.08.19-.14.38-.22.57a1.13,1.13,0,0,1,.31,1.56l0,0c-.48.74-.92,1.49-1.34,2.26a6.19,6.19,0,0,1-1.39,2.86,33.41,33.41,0,0,0-2.28,7.91,1,1,0,0,1-1,.93,1.51,1.51,0,0,1-.7-.18,1.1,1.1,0,0,1-.92.46,1.55,1.55,0,0,1-1.21-.62c-1.13-1.55,0-3.87.48-5.51.7-2.28,1.55-4.5,2.43-6.72s1.68-4.32,2.38-6.52l1-3.69A28.84,28.84,0,0,0,35,99.75a1.25,1.25,0,0,1,.85-1.16c1.77-7.14,3.34-14.34,4.79-21.57C41.89,71,43,65,44.2,58.92l.91-5.58-.2-.76.16-.44c.1-.27.17-.47.22-.58a1.26,1.26,0,0,1,.17-.29l.14-.85,0-.12c-.06-.21-.1-.36-.13-.44l1.49-8.13a.92.92,0,0,0,0-.27,3.25,3.25,0,0,0-.08-.38c0-.14-.07-.26-.11-.38a.79.79,0,0,0-.12-.24,1,1,0,0,0-.68-.56q-.52-.19-1.09-.34a4.69,4.69,0,0,1-1-.38.58.58,0,0,1-.33-.67.68.68,0,0,1,.16-.38,2.23,2.23,0,0,1,.43-.27,1.37,1.37,0,0,1,.73-.29,3,3,0,0,0,.78-.16l.53-.22.92-.33c.26-.09.52-.18.73-.27l.29-1.82a25.61,25.61,0,0,1,3-13.63c2.07-4.14,5.54-11,10.69-11.8a7.16,7.16,0,0,1,1.09-.08M55.44,63.13c1.08,0,6-.92,6.67-1.69q.1-.14.52-.62l.86-1q.47-.55.84-1l.48-.62a2,2,0,0,1,.24-.31,1.39,1.39,0,0,1,.31-.31l.29-.39.39-.52.37-.52a2.16,2.16,0,0,1,.21-.26,3,3,0,0,0,.3-.74q.14-.52.31-1a5.26,5.26,0,0,1,.38-.87.88.88,0,0,1,.45-.46l.35-1.89a.58.58,0,0,0,.11-.21,3.62,3.62,0,0,0,.12-.36,2.84,2.84,0,0,1,.12-.34.54.54,0,0,1,.11-.19v-.16a.86.86,0,0,1-.06-.34,1.38,1.38,0,0,0-.06-.38l-.11-.21a1.22,1.22,0,0,1-.08-.17q0-.55.06-1a2.4,2.4,0,0,0-.13-.94q-.09-.31-.28-.84l-.39-1q-.2-.52-.36-.91t-.19-.46a5,5,0,0,0-.34-.44q-.25-.31-.56-.64t-.54-.63a4.08,4.08,0,0,0-.4-.41,1.63,1.63,0,0,0-.33-.22l-.59-.33-.65-.31a2.75,2.75,0,0,0-.52-.17l-.77-.29-1-.36-.95-.31a3.1,3.1,0,0,0-.52-.14,3.66,3.66,0,0,1-.52,0h-2q-.48,0-1,0a3.91,3.91,0,0,0-1,.19,3.07,3.07,0,0,0-.84.43,2.32,2.32,0,0,0-.65.76l-.17.31-.22.41-.19.36a1,1,0,0,0-.09.19L50.21,59.3a1.2,1.2,0,0,0,.11.39l.17.47a1.43,1.43,0,0,0,.39.52,1.42,1.42,0,0,0,.43.22l.49.12a1.85,1.85,0,0,1,.56.22,8,8,0,0,1,.95.58l1,.69q.49.34,1,.64a.48.48,0,0,0,.2,0m7.38-56a9.26,9.26,0,0,0-1.4.1c-6.28,1-10.14,8.73-12.22,12.93A27.64,27.64,0,0,0,46,34.69l-.06.37-.52.18-.44.16h0l-.24.06A3.36,3.36,0,0,0,43,36a3.62,3.62,0,0,0-.77.52,2.67,2.67,0,0,0-.78,1.51,2.63,2.63,0,0,0,1.39,2.87,6.76,6.76,0,0,0,1.39.55l.52.16L43.3,49.41l-.1.52.18.52h0a2.5,2.5,0,0,0-.13.32q-.08.2-.21.58a4.47,4.47,0,0,0-.24.79l-.08.46.12.44.09.33-.83,5.12L41.57,61c-1,5.07-2,10.32-3,15.46C37,84.22,35.5,91,34,97.2a3.33,3.33,0,0,0-1.11,2.34,26.58,26.58,0,0,1-.61,4.37c-.36,1.34-.68,2.51-1,3.59-.67,2.11-1.5,4.25-2.3,6.31v.05l0,.07c-.85,2.2-1.73,4.47-2.45,6.8-.07.24-.16.52-.25.77-.6,1.75-1.5,4.39.07,6.56a3.62,3.62,0,0,0,2.88,1.48,3.23,3.23,0,0,0,1.34-.29h.28a3.1,3.1,0,0,0,3.1-2.67,31.55,31.55,0,0,1,2-7.1,8.41,8.41,0,0,0,1.55-3.21c.4-.73.77-1.34,1.14-1.91a3.2,3.2,0,0,0,.39-2.79,3,3,0,0,0,.27-.83,3.82,3.82,0,0,1,.11-.48l.25-.58.06-.09a3.66,3.66,0,0,0,.79-2c.14-.39.26-.72.36-1a16,16,0,0,0,.44-1.86c.18-.43.39-.87.61-1.33s.42-.86.63-1.34a5.33,5.33,0,0,0,.44-2c.35-1.34.68-2.71,1-4,.73-3,1.48-6.1,2.4-9a32,32,0,0,1,1.23-3.14c1.07-2.49,2.18-5.05,1.89-8.24L51,66.48c.63,0,2.07.14,2.62.21a16.17,16.17,0,0,0,2.13.14,20.89,20.89,0,0,0,5.17-.67c1.55-.4,3.15-.86,4.71-1.36l.3-.1h.14l.49-.28a23.91,23.91,0,0,0,7.14-6.11A19.58,19.58,0,0,0,77.22,50a14.4,14.4,0,0,0,0-5.48,27.79,27.79,0,0,0-1.35-4.58,3.45,3.45,0,0,0-.39-.85l-.09-.16-.16-.26a2.32,2.32,0,0,0-.23-.35,2.28,2.28,0,0,0-.87-1.41,2.59,2.59,0,0,0-1.24-.48l-.28-.23L72,35.67A8.66,8.66,0,0,0,71,34.9a6,6,0,0,0-1.44-.73,12.75,12.75,0,0,0-2.3-.66,12,12,0,0,1-1.7-.46h-.07l-.33-.14-.34-.13a2.55,2.55,0,0,0-1-.22h-.72l-.33.26-1.91.52c-.76.21-1.52.43-2.28.68l-1,.34v-.6a35.13,35.13,0,0,0,.63-8.32q0-.12,0-.24v0a6,6,0,0,0,5.49,3.13A8.13,8.13,0,0,0,69.32,26a8,8,0,0,0,2.5-5.51,9.31,9.31,0,0,0,.9-4.57c-.3-4.82-4.72-8.75-9.85-8.75ZM55.91,41.42l.06-.09a1,1,0,0,1,.27-.13,1.83,1.83,0,0,1,.46-.09c.29,0,.57,0,.83,0h1.93l.37,0,.15,0,.92.3.93.33.77.29.16.06h.11l.14.06.52.24.52.27h0l.18.2.62.68.47.52.11.13.11.27c.1.24.21.52.34.85s.25.67.38,1,.19.55.24.7v.1a.39.39,0,0,1,0,.13c0,.32,0,.66-.06,1v.4l.13.38a2.92,2.92,0,0,0,.11.27l0,.14-.18.14-.14.77-.22,1.19a3.75,3.75,0,0,0-.36.52,7.34,7.34,0,0,0-.52,1.21c-.11.33-.22.68-.33,1a.44.44,0,0,1-.06.18l-.12.16-.4.54-.36.52-.15.2a4.84,4.84,0,0,0-.37.4,4.7,4.7,0,0,0-.39.52l-.37.48-.8,1-.88,1-.35.43A25,25,0,0,1,55.83,61l-.37-.25-.59-.42-.37-.26a10.15,10.15,0,0,0-1.16-.71,4,4,0,0,0-1-.4l3.06-16.64.12-.22.06-.12.16-.29,0-.06.12-.23Z"/><path class="cls-4" d="M75.33,58.49v-.06a4.54,4.54,0,0,0,.13-.44l.18-.59.14-.52q.07-.23.07-.27l.17-.56a3.15,3.15,0,0,1,.29-.67,2.47,2.47,0,0,1,.45-.57.89.89,0,0,1,.63-.24,1.29,1.29,0,0,1,.34,0c.07,0,.15.11.23.25a2.7,2.7,0,0,1,.11.74,2.35,2.35,0,0,0,.14.78.41.41,0,0,0,.07.21l.14.24q.28.67.63,1.51A14.66,14.66,0,0,0,79.83,60a7.17,7.17,0,0,0,1,1.45,3.22,3.22,0,0,0,1.48.91.84.84,0,0,0,.44.06,5.78,5.78,0,0,0,.72,0l.52,0,.4.11a2,2,0,0,0,.52.11h.45A12.85,12.85,0,0,0,87.58,62a6.77,6.77,0,0,0,1.75-.89,4.56,4.56,0,0,0,1.23-1.32A4.7,4.7,0,0,0,91.18,58l.13-1a4.16,4.16,0,0,1-.18-.52c-.08-.27-.17-.52-.25-.78s-.18-.52-.25-.77a4,4,0,0,0-.18-.48,2.91,2.91,0,0,0-.71-.87,5.29,5.29,0,0,0-1-.64,12,12,0,0,0-1.1-.52L86.59,52a.55.55,0,0,1-.33-.09.41.41,0,0,1-.18-.09,1,1,0,0,0-.31-.22,1.62,1.62,0,0,0-.32-.16,4.88,4.88,0,0,1-.63-.08,1.55,1.55,0,0,1-.54-.14L83.85,51l-.66-.28-.66-.3a3.25,3.25,0,0,1-.44-.24l-.61-.35-.77-.44q-.36-.22-1-.52a2.5,2.5,0,0,1-.89-1,11.94,11.94,0,0,1-.52-1.16l-.13-.44-.16-.52-.13-.43a.83.83,0,0,1,0-.21l.47-3.53a1.18,1.18,0,0,1,.13-.28,3.27,3.27,0,0,0,.18-.35l.52-.67.65-.89.47-.78.3-.41a2.45,2.45,0,0,1,.73-.61q.4-.22.83-.41t.8-.4a2.78,2.78,0,0,0,.69-.52l.52-.09L85,36l.81-.13a3.58,3.58,0,0,1,.52-.06,1.55,1.55,0,0,0,.37-.11l.34-.11h1.21l.2-.06.18-.06.18,0h.38a8.34,8.34,0,0,1,2,.19,11.47,11.47,0,0,1,1.72.61l.31,0a.77.77,0,0,1,.34.11,1.36,1.36,0,0,1,.38.25l.33.34a2.07,2.07,0,0,0,.36.3.79.79,0,0,0,.46.13,1.07,1.07,0,0,0,.52-.13A2.59,2.59,0,0,0,96,37a3.07,3.07,0,0,1,.43-.3,1,1,0,0,1,.52-.13,1,1,0,0,1,1.1.8l-.13,1.13-.14,1q-.18,1-.4,2.18a6.53,6.53,0,0,1-.85,2.15q-.1.22-.24.25a1.41,1.41,0,0,1-.33,0,1.15,1.15,0,0,1-.77-.46,5.66,5.66,0,0,1-.78-1.08,10.35,10.35,0,0,1-.64-1.26,3.55,3.55,0,0,1-.28-1l0-.35a1.64,1.64,0,0,0-.33-.94,2.59,2.59,0,0,0-.72-.62,7.24,7.24,0,0,0-1-.46l-1-.4a2.29,2.29,0,0,1-.39-.19,2.31,2.31,0,0,0-.52-.22.59.59,0,0,1-.24.09l-.25.06-.21,0-2.09.8a6.92,6.92,0,0,0-1.66.86,4.51,4.51,0,0,0-1.18,1.26,4.72,4.72,0,0,0-.63,1.92,1.89,1.89,0,0,0,.24,1.32,3,3,0,0,0,.92.89,8.24,8.24,0,0,0,1.3.67q.73.31,1.37.62l1.32.81a5.11,5.11,0,0,0,1.46.59l.91.22,1,.28a8.56,8.56,0,0,1,1,.35,4,4,0,0,1,.74.38,7.79,7.79,0,0,1,2.7,3,6.72,6.72,0,0,1,.59,3.91A7.21,7.21,0,0,1,96,57.67,16.41,16.41,0,0,1,94.53,60a12.79,12.79,0,0,1-5.17,3.15,20,20,0,0,1-6.14,1h-.38A1.26,1.26,0,0,1,82.5,64a1.28,1.28,0,0,0-.34-.11l-.56-.13-.78-.19-.74-.18a2.65,2.65,0,0,0-.46-.08L78,62.89a3.94,3.94,0,0,1-1.46-.75l-.29-.19c-.13-.08-.26-.18-.39-.28a3.16,3.16,0,0,1-.37-.34.58.58,0,0,1-.18-.37V60c0-.25,0-.52,0-.78a5.42,5.42,0,0,0,0-.65Z"/><path class="cls-3" d="M22.5,48.51q0-.33.07-.59a2.5,2.5,0,0,1,0-.28,3.81,3.81,0,0,1,.4-.48,1.76,1.76,0,0,1,.43-.34l.43,0,.7-.05.7,0h.49a1.73,1.73,0,0,1,.36,0,1.67,1.67,0,0,0,.49,0l1.71-.38q1.55-.29,3.1-.48a30.91,30.91,0,0,0,3.17-.56l2.53-.57.89-.23,1.36-.38,1.33-.38.85-.22.1-.06a2.15,2.15,0,0,0,.95-1.74,3.06,3.06,0,0,0-.29-1.25,9.68,9.68,0,0,0-.68-1.23,10.73,10.73,0,0,0-.85-1.14L40,37.18a4,4,0,0,0-1.26-.85,13,13,0,0,0-1.81-.68,14.34,14.34,0,0,0-2-.44,7.55,7.55,0,0,0-1.68-.1,19.77,19.77,0,0,0-2.12.32l-2.23.47a10.72,10.72,0,0,0-1.66.52,16.76,16.76,0,0,0-1.66.81,5.52,5.52,0,0,0-1,.77c-.31.29-.61.59-.89.92l-.86.91a12,12,0,0,1-.85.87,5.26,5.26,0,0,1-.72.58,2.59,2.59,0,0,0-.76.76,1.94,1.94,0,0,0-.23.48q-.07.19-.16.38a2.55,2.55,0,0,0-.25.28l-.41.52-.41.52-.26.33a3.22,3.22,0,0,0-.58,1.55,7,7,0,0,1-.29,1.41s-.08.12-.17.24a1.36,1.36,0,0,0-.24.41q-.07.14-.17.41l-.2.58a12,12,0,0,0,.11,2.42c0,.43.07.88.07.95a1.55,1.55,0,0,0,0,.39l.19,1a2.17,2.17,0,0,1,0,.33,3.13,3.13,0,0,0,.06.52,2.15,2.15,0,0,0,.19.52,1.28,1.28,0,0,0,.28.38,3.62,3.62,0,0,0,0,.54c0,.31.09.62.15.93a9,9,0,0,0,.91,1.66c.2.33.43.7.47.79a2.23,2.23,0,0,0,.31.57l.14.2.28.37.36.44a2.14,2.14,0,0,0,.31.31,1.25,1.25,0,0,0,.16.23.55.55,0,0,0,.18.14,11.9,11.9,0,0,0,2.43,2.15A6.46,6.46,0,0,0,26.91,65a12.6,12.6,0,0,0,1.9.17,5.86,5.86,0,0,0,2-.31A12.59,12.59,0,0,1,32,64.53a9.58,9.58,0,0,0,2.79-1l.66-.39V63a1.07,1.07,0,0,1,.23-.29l.07-.07a2,2,0,0,1,.35-.31.46.46,0,0,0,.18-.22,2.11,2.11,0,0,0,.37-.21,4.55,4.55,0,0,0,.45-.41c.11-.12.21-.23.29-.34a4.06,4.06,0,0,0,.24-.34,3,3,0,0,1,.27-.35l1.22-1.26a12.05,12.05,0,0,0,1-1.13,9.76,9.76,0,0,0,.79-1.18,11.43,11.43,0,0,0,.68-1.62l.14-.38a2.29,2.29,0,0,0,.1-.29,1,1,0,0,0,0-.31c0-.1-.05-.18-.25-.49a3.87,3.87,0,0,1-.25-.41l-.06-.32L41,53.2a4.85,4.85,0,0,0-1,.57q-.45.36-.88.73l-.86.76a6,6,0,0,1-.84.65l-1,.42-.08,0a2.59,2.59,0,0,0-.39.36l-.29.33c-.1.11-.2.21-.32.32a1.43,1.43,0,0,1-.39.24,8.79,8.79,0,0,1-3.1.8A7.92,7.92,0,0,1,29,58.06a1.28,1.28,0,0,0-.42-.07l-.24,0h-.1a5.83,5.83,0,0,0-.74,0,.64.64,0,0,1-.43-.21,11,11,0,0,1-1.7-1.59,11.24,11.24,0,0,1-1.3-1.92l-.42-.64a1.55,1.55,0,0,1-.21-.57l-.09-.45V52.4a.24.24,0,0,1,0-.1l.05-.08v-.1c0-.14-.16-.24-.37-.38l-.14-.1-.05-.26-.14.06-.06-.06,0,0v-.09c0-.15-.21-1.93-.19-2.13Zm1.32-4.43A4,4,0,0,1,24.5,42a11.72,11.72,0,0,1,1.77-2.2A13.85,13.85,0,0,1,28.57,38a7.43,7.43,0,0,1,2.3-1,.75.75,0,0,1,.43,0,1.61,1.61,0,0,0,.69.27,4.3,4.3,0,0,1,1.42.48,4.14,4.14,0,0,1,1.88,2.12,3.86,3.86,0,0,1,.27,1.44,1,1,0,0,1-.46.82,2.76,2.76,0,0,1-1,.52l-8.79,2H25l-.44,0-.43,0H23.9a.85.85,0,0,0,0-.25,2.8,2.8,0,0,1-.06-.3Z"/></svg>